<svg width="18" height="21" viewBox="0 0 18 21" fill="none" xmlns="http://www.w3.org/2000/svg">
<path d="M8.99999 1C7.03044 1 3.39875 1.51163 1.54926 2.59149C-0.885772 11.2597 2.42586 17.1543 8.99999 20.5C15.5742 17.1543 18.8858 11.2306 16.4507 2.59154C14.5994 1.51163 10.9695 1 8.99999 1Z" fill="#9C824A" stroke="#9C824A" stroke-width="0.793" stroke-miterlimit="282"/>
<path d="M9.00002 1.55713C7.06506 1.55713 4.88639 1.80564 2.03302 2.97502C-0.0910743 10.5415 2.37311 16.606 9.00002 19.9114C15.6269 16.606 18.0893 10.5414 15.9652 2.97502C13.1118 1.80564 10.935 1.55713 9.00002 1.55713Z" fill="#023474" stroke="#023474" stroke-width="0.793" stroke-miterlimit="282"/>
<path d="M8.99111 1.55005C7.06522 1.55005 4.99749 1.83689 3.13161 2.54589C1.19665 10.2933 2.62426 15.9503 9.00203 19.9062L8.99111 1.55005ZM9.00203 19.9062C15.3797 15.9503 16.8056 10.2933 14.8705 2.54589C13.0047 1.83689 10.9388 1.55005 9.01294 1.55005L9.00203 19.9062Z" fill="white" stroke="white" stroke-width="0.793" stroke-miterlimit="282"/>
<path d="M9.00192 1.5481C7.06512 1.5481 5.10469 1.84224 3.51162 2.39951C1.50754 10.5196 3.11696 16.0031 9.00372 19.7507L9.00192 1.5481Z" fill="#EF0107" stroke="#EF0107" stroke-width="0.793" stroke-miterlimit="282"/>
<path d="M9.00582 1.5481C10.9426 1.5481 12.9031 1.84224 14.4979 2.39951C16.502 10.5196 14.8925 16.0031 9.00403 19.7507L9.00582 1.5481Z" fill="#DB0007" stroke="#DB0007" stroke-width="0.793" stroke-miterlimit="282"/>
<path d="M6.49932 13.8012C5.6446 14.3897 4.96447 14.6016 4.17518 14.8117L3.69873 14.0681C4.42437 13.699 5.17543 13.1855 5.93197 12.4419C5.99561 13.1635 6.33017 13.6751 6.49932 13.8012Z" fill="white"/>
<path d="M6.38324 13.7703C5.57218 14.3294 4.4428 14.7186 3.1498 14.9087L2.88611 14.5067C3.99361 14.09 5.06293 13.4688 5.89224 12.5955C6.01773 13.1545 6.20866 13.5255 6.38324 13.7703Z" fill="#9C824A"/>
<path d="M4.22274 10.3553C4.22274 10.6678 3.9718 10.92 3.66081 10.92C3.34982 10.92 3.09705 10.6678 3.09705 10.3553C3.09705 10.0429 3.34982 9.79077 3.66081 9.79077C3.9718 9.79077 4.22274 10.0429 4.22274 10.3553Z" fill="white"/>
<path d="M4.16235 9.24243V11.373H5.83362C5.94271 10.6585 6.34645 9.90023 7.26118 9.24243H4.16235Z" fill="white"/>
<path d="M4.22984 11.373C3.85701 11.3784 3.54971 10.9088 3.54422 10.3205C3.54058 9.73209 3.83887 9.24974 4.2135 9.24243C4.21714 9.24243 4.22077 9.24243 4.22626 9.24243" fill="white"/>
<path d="M3.98601 10.3553C3.98601 10.5965 3.81143 10.7902 3.59683 10.7902C3.38222 10.7902 3.20764 10.5965 3.20764 10.3553C3.20764 10.1141 3.38222 9.92041 3.59683 9.92041C3.81143 9.92036 3.98601 10.1141 3.98601 10.3553Z" fill="#9C824A"/>
<path d="M4.20813 9.354V11.2689H5.86669C5.99761 10.633 6.31952 9.95696 7.1233 9.354H4.20813Z" fill="#9C824A"/>
<path d="M4.27001 11.2689C3.919 11.2762 3.63169 10.8523 3.62626 10.3242C3.62262 9.79618 3.9045 9.36126 4.25546 9.354C4.2591 9.354 4.26274 9.354 4.26637 9.354" fill="#9C824A"/>
<path d="M12.1732 11.8718C12.1732 13.6497 10.7402 15.0895 8.97068 15.0895C7.20302 15.0895 5.76819 13.6497 5.76819 11.8718C5.76819 10.0939 7.20302 8.65405 8.97068 8.65405C10.7402 8.65405 12.1732 10.0939 12.1732 11.8718Z" fill="white"/>
<path d="M12.006 11.8718C12.006 13.5565 10.6475 14.9214 8.97077 14.9214C7.29586 14.9214 5.93738 13.5565 5.93738 11.8718C5.93738 10.189 7.29586 8.82227 8.97077 8.82227C10.6475 8.82221 12.006 10.1872 12.006 11.8718Z" fill="#9C824A"/>
<path d="M11.5027 11.8719C11.5027 13.277 10.3697 14.4154 8.97128 14.4154C7.57462 14.4154 6.44165 13.277 6.44165 11.8719C6.44165 10.4667 7.57462 9.32837 8.97128 9.32837C10.3697 9.32837 11.5027 10.4667 11.5027 11.8719Z" fill="white"/>
<path d="M11.3352 11.872C11.3352 13.1839 10.2767 14.2456 8.97096 14.2456C7.66705 14.2456 6.60864 13.1839 6.60864 11.872C6.60864 10.5601 7.66705 9.49854 8.97096 9.49854C10.2767 9.49848 11.3352 10.5601 11.3352 11.872Z" fill="#9C824A"/>
<path d="M9.9562 11.8719C9.95805 12.4183 9.51614 12.8623 8.97235 12.8641C8.42683 12.8641 7.98486 12.4201 7.98486 11.8738V11.8719C7.98486 11.3256 8.42498 10.8816 8.97051 10.8816C9.51424 10.8798 9.95615 11.3238 9.95615 11.8701C9.9562 11.8719 9.9562 11.8719 9.9562 11.8719Z" fill="white"/>
<path d="M9.84028 11.8719C9.84028 12.3544 9.45284 12.7454 8.9728 12.7454C8.49271 12.7454 8.10353 12.3562 8.10168 11.8738V11.872C8.10168 11.3896 8.49087 10.9985 8.97096 10.9985C9.45105 10.9985 9.84028 11.3878 9.84028 11.8701V11.8719Z" fill="#9C824A"/>
<path d="M9.41865 11.8718C9.41865 12.1184 9.2186 12.3194 8.97131 12.3212C8.72581 12.3212 8.52576 12.1203 8.52576 11.8718C8.52576 11.6233 8.72581 11.4242 8.97131 11.4224C9.21855 11.4223 9.41865 11.6233 9.41865 11.8718Z" fill="white"/>
<path d="M9.29473 11.872C9.29473 12.0511 9.15105 12.1973 8.97104 12.1973C8.79282 12.1973 8.64734 12.0529 8.64734 11.872C8.64734 11.693 8.79282 11.5469 8.97104 11.5469C9.14921 11.5468 9.29473 11.6911 9.29473 11.872Z" fill="#9C824A"/>
<path d="M9.30409 9.4436H8.63123V11.0204H9.30409V9.4436Z" fill="white"/>
<path d="M9.20002 9.2168H8.73633V11.2212H9.20002V9.2168Z" fill="#9C824A"/>
<path d="M10.8458 10.3333L11.2131 10.8997L9.89652 11.7586L9.53101 11.1921L10.8458 10.3333Z" fill="white"/>
<path d="M11.091 10.2986L11.3437 10.6896L9.67062 11.7823L9.41785 11.3895L11.091 10.2986Z" fill="#9C824A"/>
<path d="M8.02667 11.9998L8.38675 12.5698L7.06101 13.414L6.70093 12.8421L8.02667 11.9998Z" fill="white"/>
<path d="M8.25275 11.967L8.50189 12.3617L6.81792 13.4343L6.56873 13.0396L8.25275 11.967Z" fill="#9C824A"/>
<path d="M9.30409 12.7764H8.63123V14.3531H9.30409V12.7764Z" fill="white"/>
<path d="M9.20002 12.5515H8.73633V14.5541H9.20002V12.5515Z" fill="#9C824A"/>
<path d="M8.31451 12.6082C8.40547 12.6849 8.50544 12.7543 8.63094 12.8073L8.6273 14.2143C7.99261 14.132 7.51252 13.8178 7.1488 13.3701L8.31636 12.6082" fill="#EF0107"/>
<path d="M8.31451 12.6082C8.40547 12.6849 8.50544 12.7543 8.63094 12.8073L8.6273 14.2143C7.99261 14.132 7.51252 13.8178 7.1488 13.3701L8.31636 12.6082" stroke="#EF0107" stroke-width="0.3115" stroke-miterlimit="282"/>
<path d="M9.62587 12.6138C9.53312 12.6887 9.43489 12.7599 9.30945 12.8111L9.31124 14.2181C9.94593 14.1358 10.4261 13.8216 10.7898 13.3739L9.62408 12.6138" fill="#DB0007"/>
<path d="M9.62587 12.6138C9.53312 12.6887 9.43489 12.7599 9.30945 12.8111L9.31124 14.2181C9.94593 14.1358 10.4261 13.8216 10.7898 13.3739L9.62408 12.6138" stroke="#DB0007" stroke-width="0.3115" stroke-miterlimit="282"/>
<path d="M9.94339 12.0236L11.3328 11.8555C11.3437 12.2044 11.26 12.5114 11.1418 12.8056L9.9397 12.0236" fill="#DB0007"/>
<path d="M9.94592 12.0181C9.95135 11.9962 9.94956 11.9762 9.95868 11.9122L11.3299 11.7332C11.3354 11.7971 11.3317 11.8208 11.3299 11.8501L9.94592 12.0181Z" fill="white" stroke="white" stroke-width="0.3115" stroke-miterlimit="282"/>
<path d="M11.9755 10.8579H13.7741C13.7176 11.0716 13.6631 11.2891 13.4048 11.386C12.992 11.5413 12.1355 11.6911 12.1355 11.6911C12.1191 11.4554 12.0664 11.1355 11.9755 10.8579Z" fill="white"/>
<path d="M10.7223 9.21167L15.4215 9.21712L15.256 10.942L12.0462 11.1101C11.8734 10.339 11.2896 9.6027 10.7223 9.21167Z" fill="white"/>
<path d="M10.8893 9.33374L16.8888 9.33919L16.6596 10.7444L12.0041 10.9746C11.8204 10.2766 11.4003 9.7668 10.8893 9.33374Z" fill="#9C824A"/>
<path d="M11.9755 10.8579H13.6321C13.5776 11.0479 13.5394 11.2215 13.2957 11.3073C12.9084 11.4462 12.1282 11.5558 12.1282 11.5558C12.0955 11.3275 12.0482 11.0954 11.9755 10.8579Z" fill="#9C824A"/>
<path d="M10.1562 6.70644C10.1562 6.78321 10.1399 6.99333 10.1308 7.05178H11.0619C11.0055 6.80322 10.98 6.45793 10.9728 6.19116C10.9728 6.20942 10.9564 5.65576 10.9564 5.65576C10.9564 5.61737 10.9728 5.55892 10.9964 5.54066C11.0292 5.50228 11.0619 5.50228 11.102 5.50228C11.1419 5.48401 11.2147 5.48401 11.2238 5.63569L11.2474 6.20942C11.2565 6.478 11.2565 6.84165 11.2238 7.05178H12.1204C12.113 6.97502 12.0876 6.78315 12.0803 6.72651C12.1931 6.97502 12.4368 7.10838 12.7605 7.10838C12.9532 7.10838 13.1005 7.03341 13.2133 6.9567C13.2133 6.97496 13.2606 7.05178 13.2606 7.05178H14.9264C14.8537 6.80322 14.8064 6.45793 14.781 6.19116L14.5463 4.31643L13.6897 4.16295C13.7626 4.41146 13.8117 4.77507 13.8425 5.02358L13.9734 6.22954C13.9971 6.43967 14.0135 6.66991 14.0135 6.91837V6.93663L13.9807 6.85987C13.9153 6.70639 13.8843 6.51638 13.8588 6.22949L13.8279 5.84577C13.7789 5.23365 13.4479 4.96682 12.7186 4.96682C12.5986 4.96682 12.2912 4.98509 12.104 5.04359L12.153 5.73062L12.3477 5.61732C12.5095 5.52049 12.6295 5.48211 12.775 5.48211C12.8896 5.48211 12.9623 5.52054 12.9951 5.59726C12.8569 5.61732 12.7041 5.6557 12.5332 5.73062C12.2749 5.84571 12.113 6.01926 12.0403 6.20932V6.19105L12.0148 5.55882C12.0003 5.15683 11.7403 4.89006 11.3438 4.89006C11.1674 4.89006 11.0055 4.94671 10.86 5.04354C10.851 5.02342 10.8437 5.0051 10.8346 4.98504L10.8018 4.90827L10.058 4.86989C10.0907 5.0051 10.1399 5.38703 10.1472 5.52044C10.1071 5.33038 10.0016 5.12025 9.80702 4.96677C9.65432 4.86994 9.4597 4.81329 9.25786 4.81329C8.9832 4.81329 8.69952 4.92839 8.51402 5.12025C8.31946 5.31026 8.22302 5.57889 8.21395 5.88404C8.14124 5.80728 8.04485 5.73237 7.93207 5.69404L7.59197 5.52044H7.57562C7.49564 5.48201 7.48651 5.46374 7.48651 5.44547C7.49564 5.40709 7.57562 5.36871 7.68113 5.36871C7.82661 5.36871 8.0285 5.44547 8.19033 5.54051L8.20667 4.92839C8.08482 4.86989 7.91572 4.83336 7.67201 4.83336C7.54288 4.83336 7.30102 4.85162 7.09005 4.96672C7.03364 5.0051 6.98455 5.04349 6.9373 5.08187L6.94458 4.90822C6.75001 4.87169 6.54084 4.87169 6.28258 5.1202C6.27351 5.10008 6.25711 5.00505 6.24076 4.96672L5.44062 5.0051C5.49698 5.23355 5.50605 5.55877 5.48971 5.84566L5.47336 6.15262V6.191C5.46424 6.34448 5.45701 6.51623 5.44062 6.6697C5.37513 6.45773 5.30421 6.17089 5.246 5.94249L4.84959 4.14453L3.71842 4.31628C3.72569 4.33454 3.74204 4.39304 3.75116 4.44964C3.75849 4.5264 3.75849 4.67988 3.65298 5.0051C3.46748 5.52044 3.20922 6.3061 2.95829 6.85971C2.92554 6.93648 2.86011 7.05158 2.86011 7.05158H3.74209C3.75849 6.91816 3.81485 6.68797 3.87122 6.51617C3.99307 6.51617 4.3077 6.51617 4.45313 6.49606C4.48587 6.63127 4.51861 6.80301 4.52774 6.91811L4.54229 7.05152H6.3063C6.26628 6.76463 6.28263 6.38271 6.29723 6.17078C6.31358 5.92227 6.36267 5.75053 6.46818 5.6555C6.54817 5.55867 6.63728 5.5404 6.70276 5.5404C6.69369 5.88389 6.91194 6.03742 7.1065 6.1324L7.45382 6.30594C7.57568 6.38271 7.57568 6.40097 7.57568 6.43936C7.5684 6.49601 7.47017 6.51612 7.38111 6.51612C7.19561 6.51612 6.94463 6.40098 6.67002 6.09587L6.65367 6.89799C6.87191 7.01309 7.14652 7.06974 7.39023 7.06974C7.79397 7.06974 8.22312 6.87968 8.33591 6.51607C8.53775 6.89794 8.93421 7.06974 9.3234 7.06974C9.67066 7.07005 9.92887 6.9567 10.1562 6.70644ZM4.08218 5.92253C4.13127 5.78917 4.17124 5.67402 4.24401 5.46389C4.2931 5.67402 4.31672 5.80743 4.34039 5.90427C4.24401 5.92253 4.19492 5.92253 4.08218 5.92253ZM9.03234 5.7124C9.03234 5.44563 9.12873 5.33053 9.22516 5.33053C9.25791 5.33053 9.33062 5.31042 9.36331 5.44563C9.37966 5.50228 9.38694 5.54066 9.38694 5.55892C9.38694 5.63569 9.34697 5.65576 9.29788 5.65576V5.67402C9.29788 5.67402 9.16147 5.7124 9.03234 5.77085C9.03234 5.75079 9.03234 5.73252 9.03234 5.7124ZM9.95434 6.26787C9.78335 6.41955 9.66154 6.51638 9.4597 6.51638C9.29788 6.49626 9.20144 6.40123 9.14507 6.26787C9.31422 6.20942 9.96889 5.96091 10.1562 5.88415C10.1562 6.03763 10.1635 6.20937 10.1635 6.20937V6.53465L9.95434 6.26787ZM12.9695 6.5347C12.8168 6.5347 12.784 6.41955 12.7768 6.34464C12.784 6.26787 12.8077 6.15277 13.0513 6.07606C13.0586 6.17109 13.0677 6.2478 13.0677 6.2478V6.32452C13.075 6.38297 13.075 6.43962 13.0822 6.49626C13.0514 6.51638 13.0114 6.51638 12.9695 6.5347Z" fill="#9C824A"/>
<path d="M8.06876 5.02344C7.98878 5.00518 7.86692 4.9668 7.67235 4.9668C7.5196 4.9668 7.31771 5.00518 7.16311 5.08194C6.98489 5.19704 6.85576 5.34872 6.84848 5.52232C6.83213 5.78909 6.97033 5.90419 7.17218 5.99922C7.30858 6.07598 7.43951 6.1527 7.51955 6.19108C7.62501 6.24773 7.72139 6.30617 7.71412 6.43959C7.70505 6.573 7.58319 6.66983 7.38135 6.66983C7.2122 6.66983 6.97034 6.55473 6.79939 6.4012L6.79211 6.80319C6.93759 6.87996 7.17218 6.91829 7.39042 6.91829C7.76141 6.91829 8.22331 6.74654 8.23059 6.32444C8.23966 5.99922 8.0124 5.88407 7.87599 5.80916C7.73779 5.75071 7.59954 5.67399 7.53595 5.65568C7.47046 5.61729 7.34133 5.57896 7.35045 5.42543C7.365 5.29207 7.5196 5.23357 7.68142 5.23357C7.81783 5.23357 7.95603 5.27195 8.06149 5.3304" fill="white"/>
<path d="M4.74645 4.31641L3.88809 4.4315C3.90449 4.54665 3.87174 4.77504 3.78263 5.04362C3.60626 5.5589 3.31525 6.41947 3.08789 6.91829H3.6226C3.6535 6.74475 3.69352 6.59307 3.77536 6.38294L4.56828 6.36283C4.59918 6.5163 4.65739 6.76481 4.66467 6.91829H5.38482C5.29571 6.70637 5.18298 6.2678 5.11027 5.96084L4.74645 4.31641ZM3.88809 6.05592L4.27727 4.92852L4.51191 6.03765" fill="white"/>
<path d="M6.79966 5.02344L6.78331 5.40716C6.65418 5.38709 6.49236 5.42543 6.36323 5.55884C6.25044 5.67393 6.17773 5.84573 6.16138 6.15269C6.14499 6.4012 6.13771 6.68809 6.15226 6.91828H5.54663C5.58665 6.68809 5.60305 6.42126 5.61027 6.17101L5.62662 5.86585C5.64297 5.61734 5.64297 5.36883 5.603 5.13864L6.13766 5.12037C6.16133 5.19714 6.17768 5.3305 6.16861 5.46386C6.4032 5.10015 6.63051 5.02344 6.79966 5.02344Z" fill="white"/>
<path d="M14.4264 4.43155L13.8754 4.33472C13.9318 4.58508 13.9481 4.75682 13.9809 5.00528L14.1101 6.20944C14.1355 6.45795 14.1591 6.6882 14.1518 6.91839H14.7502C14.692 6.6882 14.6683 6.45795 14.6447 6.20944" fill="white"/>
<path d="M11.9585 6.91823C11.9275 6.68804 11.9111 6.45779 11.902 6.20928L11.8784 5.5789C11.862 5.23356 11.6675 5.04355 11.3437 5.04355C11.1674 5.04355 10.9563 5.1002 10.7782 5.3304C10.7709 5.27195 10.7454 5.12027 10.7127 5.04355L10.229 5.02344C10.269 5.25368 10.2854 5.48207 10.2926 5.73058L10.3017 6.20928C10.309 6.45779 10.3017 6.68804 10.2854 6.91823H10.891C10.86 6.68804 10.8437 6.45779 10.8345 6.20928L10.8182 5.67393C10.8109 5.48207 10.9564 5.34866 11.1019 5.34866C11.271 5.34866 11.3528 5.46376 11.3602 5.63555L11.3856 6.20928C11.3929 6.45779 11.3929 6.68804 11.3765 6.91823" fill="white"/>
<path d="M13.8522 6.91842C13.7795 6.72656 13.7395 6.49637 13.7231 6.24786L13.6903 5.86594C13.6575 5.4073 13.4649 5.10034 12.7192 5.10034C12.5901 5.10034 12.4046 5.12046 12.2519 5.15699L12.2755 5.50233C12.4282 5.4073 12.5828 5.33059 12.7774 5.33059C12.9792 5.33059 13.1484 5.42562 13.1648 5.71246C12.9702 5.73257 12.7919 5.7691 12.5901 5.86594C12.3646 5.96097 12.13 6.15283 12.1536 6.45793C12.1772 6.80327 12.4373 6.95675 12.7611 6.95675C13.012 6.95675 13.1811 6.84166 13.2775 6.72656C13.2939 6.80327 13.3193 6.85992 13.343 6.91842H13.8522ZM12.9702 6.66991C12.7919 6.66991 12.6465 6.57308 12.6392 6.36295C12.6392 6.15283 12.7683 5.98108 13.1811 5.92258L13.2048 6.24786C13.2139 6.36295 13.2139 6.43972 13.2302 6.53475C13.1721 6.61146 13.0757 6.64985 12.9702 6.66991Z" fill="white"/>
<path d="M9.72701 5.08199C9.58886 4.98516 9.42699 4.94678 9.25789 4.94678C8.86142 4.94678 8.33583 5.23367 8.35218 5.96088C8.35946 6.70641 8.92686 6.9366 9.32332 6.9366C9.67064 6.9366 9.88166 6.80319 10.0507 6.63144L9.92885 6.45785C9.83979 6.53461 9.69427 6.64971 9.45968 6.64971C9.20869 6.63144 9.04866 6.45785 8.95955 6.19107L10.058 5.78908C10.0252 5.42553 9.89616 5.2154 9.72701 5.08199ZM9.34695 5.78914L8.91046 5.96088C8.90139 5.88417 8.89412 5.8074 8.89412 5.71237C8.89412 5.272 9.13598 5.19529 9.21776 5.19529C9.34695 5.17702 9.45968 5.25373 9.50144 5.40721C9.54879 5.57901 9.53244 5.73249 9.34695 5.78914Z" fill="white"/>
<path d="M6.75916 10.7702L7.1283 10.2056L8.44134 11.068L8.07214 11.6344L6.75916 10.7702Z" fill="white"/>
<path d="M6.63757 10.5763L6.8922 10.1853L8.55982 11.2834L8.3052 11.6745L6.63757 10.5763Z" fill="#9C824A"/>
<path d="M9.56177 12.5679L9.93092 12.0015L11.2439 12.8657L10.8747 13.4322L9.56177 12.5679Z" fill="white"/>
<path d="M9.43982 12.3744L9.69444 11.9834L11.3621 13.0815L11.1075 13.4707L9.43982 12.3744Z" fill="#9C824A"/>
</svg>
