<svg width="40" height="40" viewBox="0 0 40 40" fill="none" xmlns="http://www.w3.org/2000/svg">
<path opacity="0.1" d="M26.3701 25.36H4.88938C3.58438 25.36 2.52795 24.3035 2.52795 22.9985V4.49034C2.52795 3.18534 3.58438 2.12891 4.88938 2.12891H26.3805C27.6855 2.12891 28.7419 3.18534 28.7419 4.49034V22.9985C28.7315 24.3035 27.6751 25.36 26.3701 25.36Z" fill="#49B356"/>
<path d="M23.5115 32.1724H10.1819C8.31298 32.1724 6.79759 30.6474 6.79759 28.7881V11.5021C6.79759 9.63317 8.32266 8.11778 10.1819 8.11778H10.3165C10.4354 8.11778 10.5315 8.2139 10.5315 8.33278C10.5315 8.45166 10.4354 8.54778 10.3165 8.54778H10.1819C8.5504 8.54778 7.22759 9.87059 7.22759 11.5021V28.7778C7.22759 30.4093 8.5504 31.7321 10.1819 31.7321H23.5115C23.6304 31.7321 23.7265 31.8282 23.7265 31.9471C23.7265 32.0793 23.6274 32.1724 23.5115 32.1724Z" fill="white" stroke="white" stroke-width="0.357143"/>
<path d="M7.01259 15.7899C6.79509 15.7899 6.61902 15.6139 6.61902 15.3964V11.5021C6.61902 9.53421 8.22438 7.93921 10.1819 7.93921H10.3165C10.534 7.93921 10.7101 8.11528 10.7101 8.33278C10.7101 8.55028 10.534 8.72635 10.3165 8.72635H10.1819C8.64902 8.72635 7.40616 9.96921 7.40616 11.5021V15.3964C7.40616 15.6139 7.23009 15.7899 7.01259 15.7899Z" fill="#49B356"/>
<path d="M33.2159 21.2665C33.097 21.2665 33.0009 21.1704 33.0009 21.0515V11.5126C33.0009 9.88108 31.6781 8.55828 30.0466 8.55828H29.8187C29.6999 8.55828 29.6037 8.46215 29.6037 8.34328C29.6037 8.2244 29.6999 8.12828 29.8187 8.12828H30.0466C31.9155 8.12828 33.4309 9.65335 33.4309 11.5126V21.0515C33.4309 21.1704 33.3348 21.2665 33.2159 21.2665Z" fill="white" stroke="white" stroke-width="0.357143"/>
<path d="M33.2159 15.7899C32.9984 15.7899 32.8223 15.6139 32.8223 15.3964V11.5021C32.8223 9.96921 31.5795 8.72635 30.0466 8.72635H29.8187C29.6012 8.72635 29.4252 8.55028 29.4252 8.33278C29.4252 8.11528 29.6012 7.93921 29.8187 7.93921H30.0466C32.0145 7.93921 33.6095 9.54457 33.6095 11.5021V15.3964C33.6095 15.6139 33.4334 15.7899 33.2159 15.7899Z" fill="#49B356"/>
<path d="M26.0904 8.72635H16.655C16.4375 8.72635 16.2615 8.55028 16.2615 8.33278C16.2615 8.11528 16.4375 7.93921 16.655 7.93921H26.0904C26.3079 7.93921 26.484 8.11528 26.484 8.33278C26.484 8.55028 26.3079 8.72635 26.0904 8.72635Z" fill="#49B356"/>
<path d="M24.7416 34.3189V34.327L24.7423 34.3351C24.7529 34.4521 24.6661 34.5443 24.5473 34.5443H9.74691C8.54053 34.5443 7.55369 33.5574 7.55369 32.351V30.9839C7.55369 30.865 7.64982 30.7689 7.76869 30.7689C7.88757 30.7689 7.98369 30.865 7.98369 30.9839V32.351C7.98369 33.3197 8.76793 34.1039 9.73655 34.1039H24.5266C24.6454 34.1039 24.7416 34.2 24.7416 34.3189Z" fill="white" stroke="white" stroke-width="0.357143"/>
<path d="M13.144 11.2718H12.8022C12.1447 11.2718 11.6033 10.7303 11.6033 10.0729V7.36969C11.6033 6.71224 12.1447 6.17076 12.8022 6.17076H13.144C13.8014 6.17076 14.3429 6.71224 14.3429 7.36969V10.0729C14.3429 10.7407 13.8118 11.2718 13.144 11.2718ZM12.8022 6.61112C12.3845 6.61112 12.0333 6.94796 12.0333 7.38004V10.0833C12.0333 10.5009 12.3701 10.8522 12.8022 10.8522H13.144C13.5616 10.8522 13.9129 10.5153 13.9129 10.0833V7.38004C13.9129 6.9624 13.5761 6.61112 13.144 6.61112H12.8022Z" fill="white" stroke="white" stroke-width="0.357143"/>
<path d="M27.4266 11.2718H27.0848C26.4273 11.2718 25.8858 10.7303 25.8858 10.0729V7.36969C25.8858 6.71224 26.4273 6.17076 27.0848 6.17076H27.4266C28.084 6.17076 28.6255 6.71224 28.6255 7.36969V10.0729C28.6255 10.7398 28.0849 11.2718 27.4266 11.2718ZM27.0744 6.61112C26.6568 6.61112 26.3055 6.94796 26.3055 7.38004V10.0833C26.3055 10.5009 26.6423 10.8522 27.0744 10.8522H27.4162C27.8338 10.8522 28.1851 10.5153 28.1851 10.0833V7.38004C28.1851 6.9624 27.8483 6.61112 27.4162 6.61112H27.0744Z" fill="white" stroke="white" stroke-width="0.357143"/>
<path d="M33.2162 15.7901H7.01259C6.79509 15.7901 6.61902 15.614 6.61902 15.3965C6.61902 15.179 6.79509 15.0029 7.01259 15.0029H33.2162C33.4337 15.0029 33.6097 15.179 33.6097 15.3965C33.6097 15.614 33.4337 15.7901 33.2162 15.7901Z" fill="#49B356"/>
<path d="M12.7611 20.2721H11.7357C11.6894 20.2721 11.6554 20.2381 11.6554 20.1918V19.1664C11.6554 19.12 11.6894 19.086 11.7357 19.086H12.7611C12.8075 19.086 12.8414 19.12 12.8414 19.1664V20.1918C12.8414 20.2381 12.8075 20.2721 12.7611 20.2721Z" fill="white" stroke="white" stroke-width="0.357143"/>
<path d="M18.0011 20.2721H16.9757C16.9293 20.2721 16.8954 20.2381 16.8954 20.1918V19.1664C16.8954 19.12 16.9293 19.086 16.9757 19.086H18.0011C18.0475 19.086 18.0814 19.12 18.0814 19.1664V20.1918C18.0814 20.2381 18.0475 20.2721 18.0011 20.2721Z" fill="white" stroke="white" stroke-width="0.357143"/>
<path d="M23.2523 20.2721H22.2269C22.1806 20.2721 22.1466 20.2381 22.1466 20.1918V19.1664C22.1466 19.12 22.1806 19.086 22.2269 19.086H23.2523C23.2987 19.086 23.3327 19.12 23.3327 19.1664V20.1918C23.3327 20.2381 23.2987 20.2721 23.2523 20.2721Z" fill="white" stroke="white" stroke-width="0.357143"/>
<path d="M28.4929 20.2721H27.4675C27.4212 20.2721 27.3872 20.2381 27.3872 20.1918V19.1664C27.3872 19.12 27.4212 19.086 27.4675 19.086H28.4929C28.5393 19.086 28.5733 19.12 28.5733 19.1664V20.1918C28.5733 20.2381 28.5393 20.2721 28.4929 20.2721Z" fill="white" stroke="white" stroke-width="0.357143"/>
<path d="M12.7605 24.2284H11.7351C11.6887 24.2284 11.6548 24.1944 11.6548 24.1481V23.1227C11.6548 23.0763 11.6887 23.0423 11.7351 23.0423H12.7605C12.8069 23.0423 12.8408 23.0763 12.8408 23.1227V24.1481C12.8408 24.1944 12.8069 24.2284 12.7605 24.2284Z" fill="white" stroke="white" stroke-width="0.357143"/>
<path d="M18.0011 24.2284H16.9757C16.9293 24.2284 16.8954 24.1944 16.8954 24.1481V23.1227C16.8954 23.0763 16.9293 23.0423 16.9757 23.0423H18.0011C18.0475 23.0423 18.0814 23.0763 18.0814 23.1227V24.1481C18.0814 24.1944 18.0475 24.2284 18.0011 24.2284Z" fill="white" stroke="white" stroke-width="0.357143"/>
<path d="M23.2523 24.2284H22.2269C22.1806 24.2284 22.1466 24.1944 22.1466 24.1481V23.1227C22.1466 23.0763 22.1806 23.0423 22.2269 23.0423H23.2523C23.2987 23.0423 23.3327 23.0763 23.3327 23.1227V24.1481C23.3327 24.1944 23.2987 24.2284 23.2523 24.2284Z" fill="white" stroke="white" stroke-width="0.357143"/>
<path d="M28.4929 24.2284H27.4675C27.4212 24.2284 27.3872 24.1944 27.3872 24.1481V23.1227C27.3872 23.0763 27.4212 23.0423 27.4675 23.0423H28.4929C28.5393 23.0423 28.5733 23.0763 28.5733 23.1227V24.1481C28.5733 24.1944 28.5393 24.2284 28.4929 24.2284Z" fill="white" stroke="white" stroke-width="0.357143"/>
<path d="M12.7605 28.185H11.7351C11.6887 28.185 11.6548 28.151 11.6548 28.1046V27.0792C11.6548 27.0329 11.6887 26.9989 11.7351 26.9989H12.7605C12.8069 26.9989 12.8408 27.0329 12.8408 27.0792V28.1046C12.8408 28.151 12.8069 28.185 12.7605 28.185Z" fill="white" stroke="white" stroke-width="0.357143"/>
<path d="M18.0011 28.185H16.9757C16.9293 28.185 16.8954 28.151 16.8954 28.1046V27.0792C16.8954 27.0329 16.9293 26.9989 16.9757 26.9989H18.0011C18.0475 26.9989 18.0814 27.0329 18.0814 27.0792V28.1046C18.0814 28.151 18.0475 28.185 18.0011 28.185Z" fill="white" stroke="white" stroke-width="0.357143"/>
<path d="M23.2523 28.185H22.2269C22.1806 28.185 22.1466 28.151 22.1466 28.1046V27.0792C22.1466 27.0329 22.1806 26.9989 22.2269 26.9989H23.2523C23.2987 26.9989 23.3327 27.0329 23.3327 27.0792V28.1046C23.3327 28.151 23.2987 28.185 23.2523 28.185Z" fill="white" stroke="white" stroke-width="0.357143"/>
<path d="M31.9527 36.7217C28.0687 36.7217 24.9202 33.5628 24.9202 29.6892C24.9202 25.8157 28.0791 22.6567 31.9527 22.6567C35.8262 22.6567 38.9852 25.8157 38.9852 29.6892C38.9852 33.5628 35.8366 36.7217 31.9527 36.7217ZM31.9527 23.4439C28.5141 23.4439 25.7073 26.2403 25.7073 29.6892C25.7073 33.1382 28.5037 35.9346 31.9527 35.9346C35.4016 35.9346 38.198 33.1382 38.198 29.6892C38.198 26.2403 35.3912 23.4439 31.9527 23.4439Z" fill="#49B356"/>
<path d="M29.0423 32.9933C28.9387 32.9933 28.8351 32.9518 28.7626 32.8793C28.6073 32.724 28.6073 32.4754 28.7626 32.32L34.5834 26.4993C34.7387 26.344 34.9873 26.344 35.1426 26.4993C35.298 26.6547 35.298 26.9033 35.1426 27.0586L29.3219 32.8793C29.2391 32.9622 29.1459 32.9933 29.0423 32.9933Z" fill="#49B356"/>
<path d="M34.863 32.9933C34.7594 32.9933 34.6559 32.9518 34.5834 32.8793L28.7626 27.0586C28.6073 26.9033 28.6073 26.6547 28.7626 26.4993C28.918 26.344 29.1666 26.344 29.3219 26.4993L35.1426 32.32C35.298 32.4754 35.298 32.724 35.1426 32.8793C35.0701 32.9622 34.9666 32.9933 34.863 32.9933Z" fill="#49B356"/>
</svg>
