<svg width="18" height="20" viewBox="0 0 18 20" fill="none" xmlns="http://www.w3.org/2000/svg">
<path fill-rule="evenodd" clip-rule="evenodd" d="M8.99972 19.0716C6.56902 18.1242 4.61806 16.8149 3.25345 14.9946C1.83554 13.1104 1.14258 10.6727 1.14258 7.28752V0.400146H16.8569V7.28752C16.8569 10.6727 16.1639 13.1104 14.746 15.0052C13.3814 16.8149 11.4304 18.1242 8.99972 19.0716Z" fill="black"/>
<path fill-rule="evenodd" clip-rule="evenodd" d="M9 19.5L8.85958 19.4453C6.38272 18.4799 4.36282 17.1332 2.94167 15.2376C1.45506 13.2619 0.75 10.7285 0.75 7.28748V0H17.25V7.28748C17.25 10.7291 16.5447 13.2619 15.0587 15.2477L15.0578 15.2489C13.6369 17.1333 11.6173 18.4798 9.14042 19.4453L9 19.5ZM3.25373 14.9945C4.61834 16.8148 6.5693 18.1242 9 19.0716C11.4307 18.1242 13.3817 16.8148 14.7463 15.0052C16.1642 13.1103 16.8571 10.6726 16.8571 7.28748V0.400103H1.14286V7.28748C1.14286 10.6726 1.83582 13.1103 3.25373 14.9945Z" fill="white"/>
<path fill-rule="evenodd" clip-rule="evenodd" d="M9.00004 18.5393C7.91262 18.1029 6.91049 17.5919 6.02562 16.9745H11.9638C11.0789 17.5919 10.0875 18.1029 9.00004 18.5393ZM3.71219 14.7603C3.24311 14.1322 2.84865 13.4297 2.52882 12.6419H15.4499C15.1301 13.4297 14.7356 14.1322 14.2666 14.7603H3.71219ZM1.85718 10.1723C1.75057 9.53356 1.67594 8.84163 1.65462 8.10712H16.3455C16.3241 8.84163 16.2495 9.53356 16.1429 10.1723H1.85718ZM9.2559 3.28489H16.3561V5.71197H9.2559V3.28489ZM1.6333 0.900391H8.75484V7.6068H1.6333V0.900391Z" fill="#EE3124"/>
<path fill-rule="evenodd" clip-rule="evenodd" d="M6.3776 7.30872C6.20702 7.2555 5.9938 6.78711 6.00446 6.55292V6.52099C5.78058 6.13776 5.54604 5.82906 5.38613 5.63744V6.62744C5.37546 6.95744 5.29018 7.17034 5.04497 7.28743C5.24753 7.31937 5.54604 7.3513 5.72728 7.08518C5.79124 7.21292 6.13239 7.39388 6.3776 7.30872ZM6.99593 5.09454C7.0599 5.23293 7.10254 5.47777 6.71875 5.78647C7.18783 5.7226 7.39039 5.55228 7.41171 5.32874C7.44369 4.91358 7.3051 4.90293 7.40105 4.33874C7.43303 4.14713 7.5503 4.00874 7.76352 3.84907C7.32642 3.91294 7.0599 4.12584 6.92131 4.60487H6.00446V2.96553H6.29231C6.26033 2.78456 6.20702 2.61424 6.10041 2.41198H5.65265C5.42877 2.41198 5.33282 2.32682 5.1196 2.40133C5.27952 2.49714 5.38613 2.61424 5.38613 2.75262V4.6368C5.58868 4.74326 5.81256 4.91358 5.97248 5.09454H6.99593ZM7.39039 2.96553H7.85947C7.85947 3.23165 8.16864 3.75326 8.6164 3.76391C8.39252 3.43391 8.29657 3.21036 8.40318 2.76327C8.62706 2.17779 8.45649 1.72005 8.18996 1.65618C8.24327 1.81585 8.27525 2.29488 7.99806 2.42263H7.12386C7.19849 2.68875 7.32642 2.9123 7.39039 2.96553ZM5.25819 6.31873C3.39252 6.98937 2.57163 6.08454 2.0599 4.73261C1.98527 4.56229 1.98527 4.44519 1.78271 4.31745C2.0066 4.24294 2.04924 4.10455 2.08122 3.96616C2.20915 3.05069 2.77419 2.28424 3.65905 2.00747V2.45456C3.03005 2.76327 2.69956 3.60423 2.72088 4.38132C2.75286 5.26487 3.57376 6.1697 4.40532 6.14841C4.6825 6.13776 4.99167 6.11647 5.26885 5.90357V6.31873H5.25819ZM4.54391 1.84779C4.6825 1.83714 4.82109 1.83714 4.98101 1.83714C4.94903 2.0394 4.8744 2.80585 5.18357 3.06133C5.1196 3.18907 4.95969 3.32746 4.81043 3.32746C4.70382 3.32746 4.67184 3.27423 4.61854 3.19972C4.59721 3.16778 4.56523 3.1252 4.54391 3.08262V1.84779ZM4.40532 5.04132V5.99938C4.34135 6.01002 4.26672 6.01002 4.17077 5.98873C4.07483 5.96744 3.92557 5.93551 3.78698 5.8397V1.84779C3.78698 1.60295 3.60574 1.37941 3.28591 1.25166C3.59508 1.06005 4.17077 1.24102 4.26672 1.45392C4.57589 1.25166 4.93836 1.1665 5.29018 1.1665C5.97248 1.17715 6.64412 1.53908 6.91065 2.23101C7.04924 2.60359 7.1132 2.97617 7.39039 3.11456C7.31576 3.15714 7.2518 3.19972 7.20915 3.27423C7.07056 3.4552 6.97461 3.73197 6.75073 4.07261C6.66544 4.211 6.54817 4.33874 6.42024 4.46648H6.14305V4.13649C6.33495 3.82778 6.44156 3.44455 6.4309 3.07198C6.42024 2.52908 6.00446 1.68811 5.02365 1.63489C4.74647 1.62424 4.50126 1.69876 4.39465 1.77327V4.541C4.97035 4.541 5.37546 4.74326 5.68463 5.00938C5.98314 5.26486 6.1857 5.59486 6.36694 5.94615C6.6228 6.43583 6.80404 6.86163 7.12386 6.86163C7.35841 6.85098 7.47568 6.73389 7.58229 6.58486C7.6889 7.07453 7.3051 7.27679 7.08122 7.28743C6.83602 7.28743 6.53751 7.08518 6.34561 6.8084C6.05777 6.40389 5.78058 5.81841 5.38613 5.43519C4.93836 4.99874 4.6292 5.04132 4.40532 5.04132ZM4.45862 6.65937C4.52259 6.9255 4.65052 7.23421 4.8744 7.38324C4.28804 7.37259 4.2454 7.17034 4.16011 7.08518C4.02152 7.22356 3.8083 7.45775 3.36054 7.41517C3.6164 7.18098 3.72301 6.94679 3.76566 6.65937C3.98954 6.69131 4.25606 6.70195 4.45862 6.65937Z" fill="white"/>
</svg>
