<svg width="124" height="22" viewBox="0 0 124 22" fill="none" xmlns="http://www.w3.org/2000/svg">
<path fill-rule="evenodd" clip-rule="evenodd" d="M10.7859 21.049C16.5664 21.049 21.2524 16.3371 21.2524 10.5245C21.2524 4.71199 16.5664 0 10.7859 0C5.00547 0 0.319458 4.71199 0.319458 10.5245C0.319458 16.3371 5.00547 21.049 10.7859 21.049ZM10.7861 18.8927C15.3821 18.8927 19.108 15.1461 19.108 10.5245C19.108 5.90296 15.3821 2.15643 10.7861 2.15643C6.18996 2.15643 2.46408 5.90296 2.46408 10.5245C2.46408 15.1461 6.18996 18.8927 10.7861 18.8927Z" fill="white"/>
<path d="M5.06014 10.1769C7.85477 10.1769 10.1203 7.89881 10.1203 5.08868C10.1203 2.27855 7.85477 0.000488281 5.06014 0.000488281C2.2655 0.000488281 0 2.27855 0 5.08868C0 7.89881 2.2655 10.1769 5.06014 10.1769Z" fill="#0CD664"/>
<path d="M28.976 7.7661C28.976 8.27492 29.2423 8.7034 29.7483 9.02476C30.2543 9.34611 31.0799 9.61391 32.1985 9.85493C33.6633 10.1495 34.7552 10.6583 35.4743 11.3011C36.1933 11.9705 36.5396 12.8543 36.5396 13.9523C36.5396 15.077 36.0868 16.0679 35.1813 16.8445C34.2758 17.6479 33.0774 18.0496 31.5859 18.0496C30.0146 18.0496 28.7363 17.6479 27.8042 16.8713C26.872 16.0947 26.2595 15.0502 25.9932 13.7648L28.2036 12.64C28.6031 14.7557 29.7217 15.8269 31.5593 15.8269C32.305 15.8269 32.9176 15.6662 33.3437 15.318C33.7964 14.9967 34.0095 14.5414 34.0095 14.0058C34.0095 13.4167 33.7432 12.9614 33.2105 12.64C32.6779 12.3187 31.8523 12.0241 30.7071 11.8099C29.4287 11.5421 28.4167 11.0868 27.671 10.4173C26.9253 9.74781 26.5524 8.86408 26.5524 7.79288C26.5524 6.6949 26.9786 5.78438 27.8574 5.11488C28.7097 4.44538 29.8548 4.12402 31.2397 4.12402C33.7698 4.12402 35.4476 5.27556 36.2999 7.55186L34.3291 8.7034C33.7964 7.12338 32.7578 6.31998 31.1865 6.31998C30.5473 6.31998 30.0146 6.4271 29.5885 6.66812C29.189 6.93592 28.976 7.28406 28.976 7.7661ZM37.5782 21.6917V8.3017H39.9751V9.66747C40.2947 9.18543 40.7741 8.78374 41.3334 8.48916C41.9193 8.19458 42.5585 8.0339 43.2243 8.0339C44.4493 8.0339 45.488 8.48916 46.3136 9.39967C47.1392 10.3102 47.5653 11.5153 47.5653 13.0417C47.5653 14.5414 47.1392 15.7465 46.2603 16.657C45.3815 17.5943 44.3162 18.0496 43.0378 18.0496C41.7595 18.0496 40.7475 17.5676 39.9751 16.6035V21.6917H37.5782ZM44.3961 11.0868C43.8901 10.5512 43.2509 10.2834 42.5052 10.2834C41.7329 10.2834 41.1203 10.5512 40.6143 11.0868C40.1083 11.6224 39.842 12.2651 39.842 13.0417C39.842 13.8184 40.1083 14.4611 40.6143 14.9967C41.1203 15.5323 41.7595 15.8001 42.5052 15.8001C43.2775 15.8001 43.8901 15.5323 44.3961 14.9967C44.9021 14.4611 45.1684 13.8184 45.1684 13.0417C45.1418 12.2651 44.9021 11.6224 44.3961 11.0868ZM56.9399 9.37289C57.9786 10.2566 58.4846 11.4885 58.4846 13.0417C58.4846 14.595 57.9785 15.8269 56.9665 16.7106C55.9545 17.5943 54.7294 18.0496 53.3445 18.0496C51.9597 18.0496 50.7346 17.5943 49.7225 16.7106C48.7105 15.8269 48.2045 14.595 48.2045 13.0417C48.2045 11.4885 48.7105 10.2566 49.7225 9.37289C50.7346 8.48916 51.9597 8.0339 53.3445 8.0339C54.7294 8.0339 55.9279 8.48916 56.9399 9.37289ZM51.427 15.0502C51.9597 15.5591 52.5988 15.8001 53.3445 15.8001C54.0902 15.8001 54.7294 15.5591 55.2621 15.0502C55.7947 14.5414 56.061 13.8719 56.061 13.0417C56.061 12.2116 55.7947 11.5421 55.2621 11.0333C54.7294 10.5244 54.0902 10.2834 53.3445 10.2834C52.5988 10.2834 51.9597 10.5244 51.427 11.0333C50.8944 11.5421 50.628 12.2116 50.628 13.0417C50.628 13.8719 50.8944 14.5414 51.427 15.0502ZM65.4622 8.1678V10.3905C65.2225 10.2566 64.5834 10.3102 64.317 10.3102C63.6246 10.3102 63.0653 10.578 62.6658 11.1136C62.2664 11.6492 62.0533 12.3187 62.0533 13.1221V17.8086H59.6564V8.3017H62.0533V9.80137C62.6392 8.62305 63.5181 8.0339 64.6899 8.0339C64.9296 8.0339 65.1959 8.08746 65.4622 8.1678ZM66.634 8.3017V5.73082H69.031V8.3017H71.0816V10.2566H69.031V14.5682C69.031 15.4519 69.4304 15.9072 70.2294 15.9072C70.4957 15.9072 70.7621 15.8804 71.0284 15.8001L71.2681 17.7818C70.7887 17.9693 70.256 18.0496 69.6701 18.0496C67.6461 18.0496 66.6607 17.032 66.6607 15.0235V10.2566L66.634 8.3017ZM74.3574 10.6316C74.3574 11.2207 75.1031 11.676 76.5945 11.9705C77.6865 12.2116 78.4854 12.5597 78.9914 13.015C79.4974 13.4702 79.7371 14.1129 79.7371 14.8896C79.7371 15.8001 79.3909 16.5499 78.7251 17.1659C78.0593 17.755 77.1538 18.0496 76.0086 18.0496C74.9167 18.0496 74.0112 17.7818 73.2921 17.2462C72.5731 16.7106 72.0404 16.0411 71.6942 15.2109L73.6117 13.979C73.8248 14.595 74.1444 15.1038 74.5438 15.4787C74.9433 15.8536 75.4493 16.0411 76.0352 16.0411C76.4347 16.0411 76.781 15.9608 77.0739 15.7733C77.3669 15.5858 77.5267 15.318 77.5267 14.9967C77.5267 14.7021 77.3669 14.4343 77.0473 14.2736C76.7277 14.0862 76.2217 13.9255 75.5026 13.7916C73.3188 13.3631 72.2268 12.3722 72.2268 10.819C72.2268 9.96205 72.573 9.29255 73.2655 8.81052C73.9579 8.32848 74.7835 8.08746 75.7689 8.08746C76.7809 8.08746 77.5799 8.27492 78.1658 8.64984C78.7517 9.02475 79.2578 9.64069 79.6572 10.4709L77.9261 11.5153C77.5 10.4173 76.781 9.85493 75.7956 9.85493C74.8368 9.80137 74.3574 10.0692 74.3574 10.6316ZM80.5894 17.7818V4.39182H82.9863V9.45323C83.732 8.48916 84.7706 8.00712 86.0756 8.00712C87.3806 8.00712 88.4459 8.46238 89.2981 9.34611C90.1504 10.2566 90.5765 11.4617 90.5765 13.015C90.5765 14.5414 90.1504 15.7733 89.2715 16.657C88.3926 17.5676 87.3273 18.0228 86.049 18.0228C84.7174 18.0228 83.6787 17.5408 82.9863 16.5767V17.755H80.5894V17.7818ZM83.5988 15.0502C84.1048 15.5591 84.744 15.8269 85.5163 15.8269C86.2887 15.8269 86.9279 15.5591 87.4339 15.0502C87.9399 14.5414 88.1796 13.8719 88.1796 13.0685C88.1796 12.2651 87.9399 11.5956 87.4339 11.0868C86.9279 10.578 86.2887 10.3102 85.5163 10.3102C84.744 10.3102 84.1048 10.578 83.5988 11.0868C83.0928 11.5956 82.8531 12.2651 82.8531 13.0685C82.8531 13.8451 83.0928 14.5146 83.5988 15.0502ZM100.75 13.6309H93.4794C93.5593 14.354 93.8256 14.9431 94.305 15.3716C94.7844 15.8001 95.3703 16.0143 96.0627 16.0143C97.2346 16.0143 98.0868 15.4252 98.6727 14.2736L100.457 15.318C99.5782 17.1659 98.0868 18.1032 96.0361 18.1032C94.7045 18.1032 93.5593 17.6479 92.6005 16.7106C91.6684 15.7733 91.189 14.5682 91.189 13.0953C91.189 11.6224 91.6684 10.4173 92.6272 9.48001C93.5859 8.54272 94.7578 8.08746 96.1426 8.08746C97.4742 8.08746 98.5928 8.54272 99.445 9.42645C100.297 10.3102 100.75 11.4617 100.75 12.8275V13.6309ZM96.0894 9.88171C95.4768 9.88171 94.9175 10.0692 94.4648 10.4441C94.012 10.819 93.6925 11.3011 93.506 11.8634H98.5662C98.4596 11.2475 98.1667 10.7387 97.7406 10.3905C97.3145 10.0424 96.7552 9.88171 96.0894 9.88171ZM101.522 8.3017V5.73082H103.919V8.3017H105.97V10.2566H103.919V14.5682C103.919 15.4519 104.319 15.9072 105.118 15.9072C105.384 15.9072 105.65 15.8804 105.917 15.8001L106.156 17.7818C105.677 17.9693 105.144 18.0496 104.558 18.0496C102.534 18.0496 101.549 17.032 101.549 15.0235V10.2566L101.522 8.3017ZM108.154 17.7818C108.846 17.7818 109.432 17.2194 109.432 16.4964C109.432 15.8001 108.873 15.2109 108.154 15.2109C107.461 15.2109 106.875 15.7733 106.875 16.4964C106.875 17.2194 107.461 17.7818 108.154 17.7818ZM110.497 17.7818V8.3017H112.894V17.7818H110.497ZM122.455 9.37289C123.494 10.2566 124 11.4885 124 13.0417C124 14.595 123.494 15.8269 122.482 16.7106C121.47 17.5943 120.245 18.0496 118.86 18.0496C117.475 18.0496 116.25 17.5943 115.238 16.7106C114.226 15.8269 113.72 14.595 113.72 13.0417C113.72 11.4885 114.226 10.2566 115.238 9.37289C116.25 8.48916 117.475 8.0339 118.86 8.0339C120.245 8.0339 121.417 8.48916 122.455 9.37289ZM116.916 15.0502C117.448 15.5591 118.088 15.8001 118.833 15.8001C119.579 15.8001 120.218 15.5591 120.751 15.0502C121.284 14.5414 121.55 13.8719 121.55 13.0417C121.55 12.2116 121.284 11.5421 120.751 11.0333C120.218 10.5244 119.579 10.2834 118.833 10.2834C118.088 10.2834 117.448 10.5244 116.916 11.0333C116.383 11.5421 116.117 12.2116 116.117 13.0417C116.117 13.8719 116.383 14.5414 116.916 15.0502Z" fill="white"/>
<path d="M110.362 5.6779C110.362 6.402 110.949 6.96518 111.642 6.96518C112.336 6.96518 112.922 6.402 112.922 5.6779C112.922 4.95381 112.336 4.39062 111.642 4.39062C110.922 4.39062 110.362 4.95381 110.362 5.6779Z" fill="#2ADD4D"/>
</svg>
