<svg width="22" height="24" viewBox="0 0 22 24" fill="none" xmlns="http://www.w3.org/2000/svg">
<path fill-rule="evenodd" clip-rule="evenodd" d="M3.84034 17.113C5.53737 19.1189 8.07981 20.3946 10.9234 20.3946C13.739 20.3946 16.2568 19.1457 17.9552 17.1735L19.9658 19.5781C17.7077 21.9895 14.4859 23.4999 10.9104 23.4999C7.31361 23.4999 4.07745 21.9733 1.81941 19.536L3.84034 17.113Z" fill="#211E1F"/>
<path d="M3.84034 17.113C5.53737 19.1189 8.07981 20.3946 10.9234 20.3946C13.739 20.3946 16.2568 19.1457 17.9552 17.1735L19.9658 19.5781C17.7077 21.9895 14.4859 23.4999 10.9104 23.4999C7.31361 23.4999 4.07745 21.9733 1.81941 19.536L3.84034 17.113Z" stroke="white" stroke-width="0.170114"/>
<path fill-rule="evenodd" clip-rule="evenodd" d="M5.43182 7.90234V18.5812C5.43182 18.8897 5.62831 19.1572 5.90402 19.2597L10.8901 21.1824L15.8778 19.2597C16.1519 19.1572 16.35 18.8897 16.35 18.5812L16.3492 7.90234H5.43182Z" fill="#211E1F"/>
<path d="M5.43182 7.90234V18.5812C5.43182 18.8897 5.62831 19.1572 5.90402 19.2597L10.8901 21.1824L15.8778 19.2597C16.1519 19.1572 16.35 18.8897 16.35 18.5812L16.3492 7.90234H5.43182V7.90234Z" stroke="white" stroke-width="0.170114"/>
<path fill-rule="evenodd" clip-rule="evenodd" d="M16.0908 16.1462V9.56494H5.69435L5.69239 16.1462H16.0908Z" fill="white"/>
<path fill-rule="evenodd" clip-rule="evenodd" d="M5.69212 15.5289C5.78374 15.6745 6.00823 15.7769 6.2684 15.7769C6.53244 15.7769 6.7581 15.6745 6.84759 15.5269C6.93922 15.6745 7.1637 15.7769 7.42673 15.7769C7.68982 15.7769 7.91156 15.6745 8.00414 15.5289C8.0966 15.6745 8.32013 15.7769 8.58137 15.7769C8.84547 15.7769 9.06799 15.6745 9.15961 15.5269H9.16242C9.25303 15.6745 9.47673 15.7769 9.73881 15.7769C10.0018 15.7769 10.2245 15.6745 10.3151 15.5289C10.4077 15.6745 10.6342 15.7769 10.894 15.7769C11.1576 15.7769 11.3807 15.6745 11.4725 15.5269H11.4704C11.5634 15.6745 11.7865 15.7769 12.0479 15.7769C12.3113 15.7769 12.5358 15.6745 12.6275 15.5289C12.7188 15.6745 12.9443 15.7769 13.206 15.7769C13.467 15.7769 13.6915 15.6745 13.7829 15.5269H13.7852C13.8753 15.6745 14.1003 15.7769 14.3605 15.7769C14.6247 15.7769 14.8475 15.6745 14.9402 15.5289V15.5326C15.032 15.6792 15.2557 15.7769 15.5151 15.7769C15.7806 15.7769 16.0037 15.6745 16.0938 15.5269V15.5144L16.0906 18.4232C16.0906 18.7183 15.903 18.9696 15.6405 19.0672L10.8902 20.9017L6.14317 19.0672C5.88008 18.9696 5.69212 18.7183 5.69212 18.4232V15.5162V15.5289Z" fill="#D61F26"/>
<path fill-rule="evenodd" clip-rule="evenodd" d="M5.69212 15.2251C5.78374 15.3698 6.00823 15.4733 6.2684 15.4733C6.53244 15.4733 6.7581 15.3688 6.84759 15.2251C6.93922 15.3688 7.1637 15.4733 7.42673 15.4733C7.68982 15.4733 7.91156 15.3698 8.00414 15.2251C8.0966 15.3698 8.32013 15.4733 8.58137 15.4733C8.84547 15.4733 9.06799 15.3688 9.15961 15.2251H9.16242C9.25303 15.3688 9.47673 15.4733 9.73881 15.4733C10.0018 15.4733 10.2245 15.3698 10.3151 15.2251C10.4077 15.3698 10.6342 15.4733 10.894 15.4733C11.1576 15.4733 11.3807 15.3688 11.4725 15.2251H11.4704C11.5634 15.3688 11.7865 15.4733 12.0479 15.4733C12.3113 15.4733 12.5358 15.3698 12.6275 15.2251C12.7188 15.3698 12.9443 15.4733 13.206 15.4733C13.467 15.4733 13.6915 15.3688 13.7829 15.2251H13.7852C13.8753 15.3688 14.1003 15.4733 14.3605 15.4733C14.6247 15.4733 14.8475 15.3698 14.9402 15.2251V15.2298C15.032 15.3754 15.2557 15.4733 15.5151 15.4733C15.7806 15.4733 16.0037 15.3688 16.0938 15.2251V14.8647C16.0037 15.0103 15.7806 15.1148 15.5151 15.1148C15.2557 15.1148 15.032 15.0122 14.9402 14.8665C14.8475 15.0122 14.6247 15.1148 14.3605 15.1148C14.1003 15.1148 13.8753 15.0103 13.7852 14.8647H13.7829C13.6915 15.0103 13.467 15.1148 13.206 15.1148C12.9443 15.1148 12.7188 15.0122 12.6275 14.8665C12.5358 15.0122 12.3113 15.1148 12.0479 15.1148C11.7865 15.1148 11.5634 15.0103 11.4704 14.8647H11.4725C11.3807 15.0103 11.1576 15.1148 10.894 15.1148C10.6341 15.1148 10.4077 15.0122 10.3151 14.8665C10.2246 15.0122 10.0019 15.1148 9.73881 15.1148C9.47667 15.1148 9.25303 15.0103 9.16242 14.8647H9.15961C9.06799 15.0103 8.84547 15.1148 8.58137 15.1148C8.32013 15.1148 8.0966 15.0122 8.00414 14.8665C7.91156 15.0122 7.68982 15.1148 7.42673 15.1148C7.1637 15.1148 6.93922 15.0103 6.84759 14.8647C6.75805 15.0103 6.53244 15.1148 6.2684 15.1148C6.00823 15.1148 5.78374 15.0122 5.69212 14.8665V15.2251Z" fill="#2EABE2"/>
<path fill-rule="evenodd" clip-rule="evenodd" d="M5.69212 14.5761C5.78374 14.7209 6.00823 14.8225 6.2684 14.8225C6.53244 14.8225 6.7581 14.7198 6.84759 14.5761C6.93922 14.7198 7.1637 14.8225 7.42673 14.8225C7.68982 14.8225 7.91156 14.7209 8.00414 14.5761C8.0966 14.7209 8.32013 14.8225 8.58137 14.8225C8.84547 14.8225 9.06799 14.7198 9.15961 14.5761H9.16242C9.25303 14.7198 9.47673 14.8225 9.73881 14.8225C10.0018 14.8225 10.2245 14.7209 10.3151 14.5761C10.4077 14.7209 10.6342 14.8225 10.894 14.8225C11.1576 14.8225 11.3807 14.7198 11.4725 14.5761H11.4704C11.5634 14.7198 11.7865 14.8225 12.0479 14.8225C12.3113 14.8225 12.5358 14.7209 12.6275 14.5761C12.7188 14.7209 12.9443 14.8225 13.206 14.8225C13.467 14.8225 13.6915 14.7198 13.7829 14.5761H13.7852C13.8753 14.7198 14.1003 14.8225 14.3605 14.8225C14.6247 14.8225 14.8475 14.7209 14.9402 14.5761V14.5798C15.032 14.7256 15.2557 14.8225 15.5151 14.8225C15.7806 14.8225 16.0037 14.7198 16.0938 14.5761V14.2158C16.0037 14.3606 15.7806 14.4651 15.5151 14.4651C15.2557 14.4651 15.032 14.3634 14.9402 14.2167C14.8475 14.3634 14.6247 14.4651 14.3605 14.4651C14.1003 14.4651 13.8753 14.3606 13.7852 14.2158H13.7829C13.6915 14.3606 13.467 14.4651 13.206 14.4651C12.9443 14.4651 12.7188 14.3634 12.6275 14.2167C12.5358 14.3634 12.3113 14.4651 12.0479 14.4651C11.7865 14.4651 11.5634 14.3606 11.4704 14.2158H11.4725C11.3807 14.3606 11.1576 14.4651 10.894 14.4651C10.6341 14.4651 10.4077 14.3634 10.3151 14.2167C10.2246 14.3634 10.0019 14.4651 9.73881 14.4651C9.47667 14.4651 9.25303 14.3606 9.16242 14.2158H9.15961C9.06799 14.3606 8.84547 14.4651 8.58137 14.4651C8.32013 14.4651 8.0966 14.3634 8.00414 14.2167C7.91156 14.3634 7.68982 14.4651 7.42673 14.4651C7.1637 14.4651 6.93922 14.3606 6.84759 14.2158C6.75805 14.3606 6.53244 14.4651 6.2684 14.4651C6.00823 14.4651 5.78374 14.3634 5.69212 14.2167V14.5761Z" fill="#2EABE2"/>
<path fill-rule="evenodd" clip-rule="evenodd" d="M10.1289 18.8421C10.1289 18.8421 9.61909 19.6346 9.88706 19.4114C10.0827 19.2436 10.3506 18.8572 10.5443 18.5391L11.5906 18.9436C11.5906 18.9436 12.1911 19.6701 12.0581 19.349C11.9622 19.117 11.6659 18.7405 11.4215 18.4557L12.1381 17.5951C12.1381 17.5951 13.0194 17.254 12.67 17.2798C12.4415 17.2971 11.9645 17.4676 11.6209 17.6058L11.0242 16.6607C11.0242 16.6607 10.9681 15.7205 10.8848 16.0588C10.827 16.2908 10.8453 16.793 10.8731 17.1647L9.77905 17.4294C9.77905 17.4294 8.86366 17.1906 9.16226 17.3738C9.37149 17.5041 9.82831 17.6402 10.1925 17.7274L10.1289 18.8421Z" fill="#211E1F"/>
<path d="M10.1289 18.8421C10.1289 18.8421 9.61909 19.6346 9.88706 19.4114C10.0827 19.2436 10.3506 18.8572 10.5443 18.5391L11.5906 18.9436C11.5906 18.9436 12.1911 19.6701 12.0581 19.349C11.9622 19.117 11.6659 18.7405 11.4215 18.4557L12.1381 17.5951C12.1381 17.5951 13.0194 17.254 12.67 17.2798C12.4415 17.2971 11.9645 17.4676 11.6209 17.6058L11.0242 16.6607C11.0242 16.6607 10.9681 15.7205 10.8848 16.0588C10.827 16.2908 10.8453 16.793 10.8731 17.1647L9.77905 17.4294C9.77905 17.4294 8.86366 17.1906 9.16226 17.3738C9.37149 17.5041 9.82831 17.6402 10.1925 17.7274L10.1289 18.8421Z" stroke="#211E1F" stroke-width="0.104047"/>
<path fill-rule="evenodd" clip-rule="evenodd" d="M10.9625 18.632C10.9561 18.6473 10.9444 18.6578 10.9314 18.6578C10.9191 18.6578 10.9097 18.6473 10.9015 18.632C10.89 18.6051 10.8794 18.542 10.8833 18.4106C10.8833 18.4106 10.8766 17.9667 10.5432 18.4432C9.60948 19.7821 10.9394 19.7897 10.9394 19.7897H10.9267C10.9267 19.7897 12.2568 19.7821 11.3218 18.4432C10.9883 17.9667 10.9844 18.4106 10.9844 18.4106C10.9854 18.542 10.9773 18.6051 10.9625 18.6339V18.632" fill="white"/>
<path d="M10.9625 18.632L10.9314 18.6578L10.9015 18.632C10.89 18.6051 10.8833 18.542 10.8833 18.4106C10.8833 18.4106 10.8766 17.9667 10.5432 18.4432C9.60948 19.7821 10.9394 19.7897 10.9394 19.7897H10.9267C10.9267 19.7897 12.2568 19.7821 11.3218 18.4432C10.9883 17.9667 10.9844 18.4106 10.9844 18.4106C10.9844 18.542 10.9773 18.6051 10.9625 18.6339V18.632H10.9625Z" stroke="#211E1F" stroke-width="0.104047"/>
<path fill-rule="evenodd" clip-rule="evenodd" d="M11.6465 18.0956C11.6586 18.1068 11.6642 18.1195 11.6588 18.1299C11.6558 18.1424 11.644 18.152 11.6268 18.152H11.6276C11.5965 18.154 11.5354 18.1481 11.4093 18.1042C11.4093 18.1042 10.9823 17.9738 11.3347 18.4329C12.3278 19.7306 12.7432 18.478 12.7432 18.478V18.4866C12.7432 18.4866 13.1441 17.2262 11.5758 17.6968C11.0157 17.8626 11.4412 18.0074 11.4412 18.0074C11.5698 18.0446 11.6247 18.0734 11.6465 18.0956Z" fill="white"/>
<path d="M11.6465 18.0956C11.6586 18.1068 11.6588 18.1299 11.6588 18.1299L11.6268 18.152H11.6276C11.6276 18.152 11.5354 18.1481 11.4093 18.1042C11.4093 18.1042 10.9823 17.9738 11.3347 18.4329C12.3278 19.7306 12.7432 18.478 12.7432 18.478V18.4866C12.7432 18.4866 13.1441 17.2262 11.5758 17.6968C11.0157 17.8626 11.4412 18.0074 11.4412 18.0074C11.5698 18.0446 11.6247 18.0734 11.6465 18.0956Z" stroke="#211E1F" stroke-width="0.104047"/>
<path fill-rule="evenodd" clip-rule="evenodd" d="M11.3478 17.2787C11.3611 17.2701 11.3761 17.2701 11.3861 17.2787C11.3968 17.2853 11.3997 17.2989 11.3968 17.3143V17.3132C11.3903 17.345 11.3645 17.4024 11.2801 17.5058C11.2801 17.5058 11.0247 17.8682 11.5758 17.6774C13.1217 17.1407 12.0519 16.3585 12.0519 16.3585L12.0598 16.3624C12.0598 16.3624 10.9822 15.5928 10.9443 17.2232C10.9312 17.8039 11.2007 17.4454 11.2007 17.4454C11.2749 17.3381 11.3206 17.2941 11.3478 17.2787Z" fill="white"/>
<path d="M11.3478 17.2787H11.3861L11.3968 17.3143V17.3132C11.3968 17.3132 11.3645 17.4024 11.2801 17.5058C11.2801 17.5058 11.0247 17.8682 11.5758 17.6774C13.1217 17.1407 12.0519 16.3585 12.0519 16.3585L12.0598 16.3624C12.0598 16.3624 10.9822 15.5928 10.9443 17.2232C10.9312 17.8039 11.2007 17.4454 11.2007 17.4454C11.2749 17.3381 11.3206 17.2941 11.3478 17.2787Z" stroke="#211E1F" stroke-width="0.104047"/>
<path fill-rule="evenodd" clip-rule="evenodd" d="M10.4708 17.3116C10.468 17.2971 10.4708 17.2819 10.4804 17.2742C10.4901 17.2693 10.5054 17.2704 10.52 17.2789C10.546 17.2915 10.5923 17.3336 10.6684 17.4448C10.6684 17.4448 10.9356 17.8003 10.9236 17.2215C10.8859 15.5922 9.8078 16.3618 9.8078 16.3618L9.81549 16.356C9.81549 16.356 8.74479 17.1381 10.2945 17.6759C10.8431 17.8665 10.5855 17.5042 10.5855 17.5042C10.5045 17.3988 10.4756 17.3432 10.4708 17.3116Z" fill="white"/>
<path d="M10.4708 17.3116L10.4804 17.2742L10.52 17.2789C10.546 17.2915 10.5923 17.3336 10.6684 17.4448C10.6684 17.4448 10.9356 17.8003 10.9236 17.2215C10.8859 15.5922 9.8078 16.3618 9.8078 16.3618L9.81549 16.356C9.81549 16.356 8.74479 17.1381 10.2945 17.6759C10.8431 17.8665 10.5855 17.5042 10.5855 17.5042C10.5045 17.3988 10.4708 17.3116 10.4708 17.3116Z" stroke="#211E1F" stroke-width="0.104047"/>
<path fill-rule="evenodd" clip-rule="evenodd" d="M10.2321 18.1519C10.2167 18.1508 10.2031 18.1423 10.2002 18.1298C10.1944 18.1193 10.2021 18.1067 10.2137 18.0954C10.2368 18.0733 10.2919 18.0427 10.4199 18.0071C10.4199 18.0071 10.8433 17.8623 10.286 17.6965C8.71403 17.2259 9.11705 18.4863 9.11705 18.4863L9.11509 18.4777C9.11509 18.4777 9.53236 19.7303 10.5239 18.4327C10.8794 17.9736 10.4518 18.1039 10.4518 18.1039C10.3255 18.1479 10.2618 18.1538 10.2321 18.1519Z" fill="white"/>
<path d="M10.2321 18.1519L10.2002 18.1298C10.2002 18.1298 10.2021 18.1067 10.2137 18.0954C10.2368 18.0733 10.2919 18.0427 10.4199 18.0071C10.4199 18.0071 10.8433 17.8623 10.286 17.6965C8.71403 17.2259 9.11705 18.4863 9.11705 18.4863L9.11509 18.4777C9.11509 18.4777 9.53236 19.7303 10.5239 18.4327C10.8794 17.9736 10.4518 18.1039 10.4518 18.1039C10.3255 18.1479 10.2321 18.1519 10.2321 18.1519Z" stroke="#211E1F" stroke-width="0.104047"/>
<path fill-rule="evenodd" clip-rule="evenodd" d="M11.8434 16.65C11.8434 16.65 11.9432 16.7189 12.03 16.7467C12.1165 16.7716 12.1538 16.8368 12.1647 16.8523C12.1647 16.8523 12.2141 16.9653 12.2457 16.9193C12.2794 16.8741 12.2121 16.7889 12.2121 16.7889C12.2022 16.7716 12.1622 16.7093 12.0784 16.6797C11.9921 16.6549 11.8924 16.5869 11.8924 16.5869C11.8924 16.5867 11.7946 16.5111 11.7427 16.4391C11.6895 16.3654 11.6179 16.3491 11.5978 16.3461C11.5978 16.3461 11.4965 16.3097 11.4611 16.3539C11.4282 16.4009 11.5503 16.4095 11.5503 16.4095C11.5709 16.4172 11.6437 16.4324 11.6958 16.5035C11.7463 16.5763 11.8434 16.65 11.8434 16.65Z" fill="#211E1F"/>
<path fill-rule="evenodd" clip-rule="evenodd" d="M10.0256 16.6491C10.0256 16.6491 10.1209 16.5755 10.1712 16.5016C10.2242 16.4298 10.2974 16.4134 10.3147 16.4066C10.3147 16.4066 10.4391 16.398 10.4064 16.352C10.3717 16.3071 10.2695 16.3443 10.2695 16.3443C10.2494 16.3472 10.176 16.3636 10.1259 16.4373C10.0729 16.5091 9.97658 16.587 9.97658 16.587C9.97658 16.5868 9.87436 16.6531 9.78958 16.6788C9.70575 16.7067 9.66715 16.769 9.6575 16.7854C9.6575 16.7854 9.59006 16.8725 9.62182 16.9185C9.65453 16.9645 9.70183 16.8514 9.70183 16.8514C9.71445 16.8342 9.75193 16.7709 9.83862 16.7452C9.9225 16.7171 10.0256 16.6491 10.0256 16.6491Z" fill="#211E1F"/>
<path fill-rule="evenodd" clip-rule="evenodd" d="M9.46025 18.3695C9.46025 18.3695 9.41772 18.2564 9.36587 18.1837C9.30887 18.1148 9.31953 18.0379 9.32048 18.0197C9.32048 18.0197 9.34736 17.8999 9.29434 17.9181C9.24148 17.9364 9.24328 18.0429 9.24328 18.0429C9.24328 18.0628 9.23464 18.1377 9.2876 18.2095C9.3436 18.2805 9.38495 18.3953 9.38495 18.3953C9.38495 18.3953 9.41682 18.5124 9.41491 18.5996C9.41491 18.6896 9.46591 18.7443 9.47657 18.7615C9.47657 18.7615 9.54025 18.8506 9.59215 18.8344C9.64809 18.8171 9.55271 18.7365 9.55271 18.7365C9.54211 18.7203 9.49099 18.6629 9.49397 18.5767C9.49397 18.4875 9.46025 18.3695 9.46025 18.3695Z" fill="#211E1F"/>
<path fill-rule="evenodd" clip-rule="evenodd" d="M10.9317 19.4305C10.9317 19.4305 10.8089 19.4352 10.725 19.4638C10.6399 19.4915 10.5725 19.4619 10.5532 19.4552C10.5532 19.4552 10.4492 19.3914 10.4501 19.4486C10.4501 19.5009 10.5532 19.5354 10.5532 19.5354C10.5725 19.5411 10.6399 19.5724 10.725 19.543C10.8089 19.5144 10.9317 19.5087 10.9317 19.5087C10.9317 19.5087 11.0565 19.5145 11.14 19.543C11.2247 19.5724 11.2915 19.5411 11.3127 19.5354C11.3127 19.5354 11.4175 19.5009 11.4175 19.4486C11.4179 19.3914 11.3127 19.4552 11.3127 19.4552C11.2915 19.4619 11.2247 19.4915 11.14 19.4638C11.0565 19.4352 10.9317 19.4305 10.9317 19.4305Z" fill="#211E1F"/>
<path fill-rule="evenodd" clip-rule="evenodd" d="M12.4006 18.3695C12.4006 18.3695 12.3661 18.4875 12.3677 18.5767C12.3677 18.6666 12.3191 18.7203 12.306 18.7365C12.306 18.7365 12.2127 18.8171 12.266 18.8344C12.3192 18.8506 12.3831 18.7615 12.3831 18.7615C12.3955 18.7443 12.4442 18.6896 12.4442 18.5996C12.4438 18.5124 12.4755 18.3953 12.4755 18.3953C12.4755 18.3953 12.5175 18.2805 12.5724 18.2095C12.6246 18.1377 12.6172 18.0628 12.6172 18.0429C12.6172 18.0429 12.6172 17.9364 12.565 17.9181C12.5136 17.8999 12.5414 18.0197 12.5414 18.0197C12.5432 18.0379 12.5502 18.1148 12.4948 18.1837C12.4416 18.2564 12.4006 18.3695 12.4006 18.3695Z" fill="#211E1F"/>
<path fill-rule="evenodd" clip-rule="evenodd" d="M10.9398 17.5933C11.1037 17.5933 11.2379 17.7274 11.2379 17.8914C11.2379 18.0591 11.1037 18.1895 10.9398 18.1895C10.7724 18.1895 10.6382 18.0591 10.6382 17.8914C10.6382 17.7274 10.7724 17.5933 10.9398 17.5933Z" fill="#FFC213"/>
<path d="M10.9398 17.5933C11.1037 17.5933 11.2379 17.7274 11.2379 17.8914C11.2379 18.0591 11.1037 18.1895 10.9398 18.1895C10.7724 18.1895 10.6382 18.0591 10.6382 17.8914C10.6382 17.7274 10.7724 17.5933 10.9398 17.5933Z" stroke="#FFCB04" stroke-width="0.0412289"/>
<path fill-rule="evenodd" clip-rule="evenodd" d="M10.3715 12.1909L10.3319 12.9957L9.6477 12.5538L9.43287 12.9028L10.2395 13.3665V13.5344C10.2395 13.5344 9.30085 14.0586 10.4448 14.0384L10.4447 14.0443C10.845 14.3768 11.2242 14.048 11.2242 14.048C12.368 14.0681 11.4306 13.5458 11.4306 13.5458V13.3771L12.1439 12.826L11.9748 12.4617L11.3369 13.0044L11.2998 12.2009L10.3715 12.1909Z" fill="#211E1F"/>
<path fill-rule="evenodd" clip-rule="evenodd" d="M9.52 12.8808C8.85693 13.6352 8.37036 12.8409 8.37036 12.8409C7.53279 12.6387 8.03002 12.0491 8.03002 12.0491C7.15693 11.4798 8.18235 11.0331 8.18235 11.0331C8.18908 10.2766 8.83678 10.333 8.83678 10.333C9.51338 9.74506 10.16 10.3977 10.16 10.3977C11.174 9.55825 11.9438 10.527 11.9438 10.527C11.9438 10.527 12.5918 10.0803 12.8827 10.7802C12.8827 10.7802 13.9143 10.7517 13.5292 11.7875C13.5292 11.7875 14.3264 12.581 13.2858 12.9719C13.2858 12.9719 12.7325 13.9906 11.9719 13.0207C11.9719 13.0207 11.5045 13.0485 11.5781 12.3934C11.5781 12.3934 10.9856 12.6387 10.425 12.3666C10.425 12.3665 10.2458 12.7677 9.86024 12.5432C9.86024 12.5432 9.91994 12.8012 9.5471 12.854L9.52 12.8808Z" fill="#0CB14B"/>
<path d="M9.52 12.8808C8.85693 13.6352 8.37036 12.8409 8.37036 12.8409C7.53279 12.6387 8.03002 12.0491 8.03002 12.0491C7.15693 11.4798 8.18235 11.0331 8.18235 11.0331C8.18235 10.2766 8.83678 10.333 8.83678 10.333C9.51338 9.74506 10.16 10.3977 10.16 10.3977C11.174 9.55825 11.9438 10.527 11.9438 10.527C11.9438 10.527 12.5918 10.0803 12.8827 10.7802C12.8827 10.7802 13.9143 10.7517 13.5292 11.7875C13.5292 11.7875 14.3264 12.581 13.2858 12.9719C13.2858 12.9719 12.7325 13.9906 11.9719 13.0207C11.9719 13.0207 11.5045 13.0485 11.5781 12.3934C11.5781 12.3934 10.9856 12.6387 10.425 12.3666C10.425 12.3666 10.2458 12.7677 9.86024 12.5432C9.86024 12.5432 9.91994 12.8012 9.5471 12.854L9.52 12.8808Z" stroke="#211E1F" stroke-width="0.42608"/>
<path fill-rule="evenodd" clip-rule="evenodd" d="M18.3932 19.3767L18.3438 19.4178C18.5137 19.7246 18.5378 19.9411 18.4193 20.0419C18.334 20.1166 18.2212 20.0858 18.1181 19.97C18.074 19.9201 18.0449 19.8626 18.0449 19.8185C18.0449 19.7544 18.0928 19.6824 18.146 19.5741C18.2482 19.3671 18.2439 19.2003 18.0622 18.9914C17.8801 18.7845 17.6422 18.7155 17.4911 18.8449C17.4257 18.9033 17.3914 18.9848 17.3851 19.0901L17.2676 19.0547L17.2266 19.0901L17.5895 19.529L17.6328 19.4869C17.4907 19.1947 17.4604 19.0192 17.5674 18.9291C17.6488 18.8562 17.7552 18.8813 17.8495 18.9895C17.9683 19.1247 17.8999 19.2033 17.8097 19.3709C17.7625 19.4639 17.7251 19.5359 17.7444 19.6461C17.7622 19.7449 17.8218 19.8589 17.9172 19.97C18.115 20.1933 18.341 20.2614 18.5007 20.1234C18.5798 20.0524 18.6164 19.969 18.6115 19.8416L18.7549 19.8894L18.7965 19.8531L18.3932 19.3767Z" fill="#FFC213"/>
<path fill-rule="evenodd" clip-rule="evenodd" d="M17.032 19.5273C16.8666 19.4497 16.7294 19.4525 16.6065 19.536C16.4827 19.6222 16.4308 19.7459 16.4487 19.9356C16.463 20.1024 16.5414 20.2921 16.6729 20.4809C16.8049 20.6687 16.9332 20.7905 17.0966 20.8661C17.2711 20.9476 17.4213 20.9486 17.5372 20.8661C17.6569 20.7848 17.7071 20.6562 17.6902 20.4618C17.6748 20.2777 17.6059 20.1148 17.4725 19.9259C17.3394 19.7354 17.1863 19.5982 17.032 19.5273ZM17.4714 20.7694C17.3427 20.8576 17.1507 20.712 16.8845 20.3324C16.6176 19.95 16.5468 19.7239 16.6756 19.6328C16.8032 19.5456 16.993 19.6902 17.2604 20.0717C17.5268 20.4521 17.6009 20.6803 17.4714 20.7694Z" fill="#FFC213"/>
<path fill-rule="evenodd" clip-rule="evenodd" d="M15.6935 20.2683L15.7506 20.2375C15.801 20.2117 15.8212 20.2318 15.8616 20.3075L16.2318 20.9956C16.3651 21.243 16.3711 21.3895 16.2274 21.4644C16.1626 21.4968 16.095 21.494 16.0352 21.4644C15.9407 21.4117 15.8776 21.3043 15.7855 21.1336L15.5177 20.6372C15.4412 20.4925 15.4257 20.4101 15.5232 20.3592C15.5241 20.3574 15.5292 20.3563 15.5302 20.3556L15.4781 20.2559L15.164 20.4236L15.2172 20.5203C15.3153 20.4859 15.3668 20.5357 15.4432 20.6775L15.7191 21.1892C15.7986 21.3388 15.8607 21.4499 15.9529 21.5285C16.0902 21.6436 16.2248 21.6588 16.3711 21.5774C16.5958 21.4595 16.6245 21.2449 16.4655 20.9421L16.0656 20.2003C16.0251 20.1235 16.0222 20.0946 16.0703 20.0689L16.1272 20.0382L16.0756 19.9395L15.6411 20.1695L15.6935 20.2683Z" fill="#FFC213"/>
<path fill-rule="evenodd" clip-rule="evenodd" d="M14.4863 20.8039C14.5305 20.7876 14.5527 20.8058 14.5841 20.8825L14.9952 21.9167C15.0279 21.9952 15.0279 22.0241 14.9769 22.0451L14.9151 22.07L14.9576 22.1745L15.4139 21.9943L15.372 21.8879L15.3117 21.9128C15.2599 21.933 15.2433 21.9128 15.21 21.8314L14.7961 20.7991C14.7665 20.7216 14.7665 20.6947 14.8092 20.6774C14.9031 20.638 15.0442 20.7684 15.1806 21.0465L15.2433 21.0244L15.0076 20.4895L14.2159 20.802L14.4137 21.3502L14.4718 21.3291C14.3804 21.033 14.3921 20.8403 14.4863 20.8039Z" fill="#FFC213"/>
<path fill-rule="evenodd" clip-rule="evenodd" d="M13.8052 22.4142C13.7526 22.4305 13.737 22.4066 13.7149 22.3241L13.5826 21.8362L13.9132 21.748L14.0434 22.234C14.0666 22.3164 14.0641 22.3433 14.011 22.3585L13.9473 22.3767L13.9783 22.4851L14.4523 22.3585L14.4229 22.2492L14.3594 22.2636C14.3058 22.2799 14.2907 22.2579 14.2685 22.1745L13.9818 21.1165C13.9574 21.033 13.9589 21.0034 14.0139 20.9879L14.077 20.9717L14.0463 20.8643L13.5726 20.9928L13.6022 21.1002L13.6645 21.0828C13.7178 21.0675 13.7336 21.0924 13.7582 21.1758L13.8756 21.6156L13.5445 21.7039L13.4267 21.2639C13.4028 21.1825 13.405 21.151 13.4588 21.1364L13.5208 21.1201L13.4929 21.012L13.0181 21.1424L13.0457 21.2486L13.1108 21.2313C13.1638 21.2169 13.179 21.2419 13.2026 21.3252L13.4889 22.3834C13.5119 22.4668 13.5096 22.4937 13.4554 22.507L13.3936 22.5262L13.4217 22.6336L13.8999 22.507L13.8679 22.3968L13.8052 22.4142Z" fill="#FFC213"/>
<path fill-rule="evenodd" clip-rule="evenodd" d="M12.5501 22.666L12.4851 22.6699C12.4571 22.6718 12.4466 22.6574 12.4416 22.6257C12.44 22.6105 12.44 22.5912 12.4416 22.5655L12.4637 22.3181L12.7912 22.2712L12.8378 22.3794C12.8525 22.414 12.8644 22.456 12.8672 22.485C12.8826 22.5808 12.8475 22.6171 12.7535 22.6372L12.7692 22.7466L13.1327 22.6939L13.116 22.5836C13.0339 22.5741 12.98 22.4867 12.9102 22.3239L12.4381 21.2083L12.343 21.2227L12.1903 22.6269C12.1835 22.6939 12.166 22.7198 12.1189 22.7283L12.1353 22.8405L12.5648 22.7771L12.5501 22.666ZM12.7372 22.1428L12.4754 22.1831L12.527 21.6482L12.7372 22.1428Z" fill="#FFC213"/>
<path fill-rule="evenodd" clip-rule="evenodd" d="M11.5946 22.4915C11.6015 22.6899 11.5761 22.7638 11.4552 22.7694L11.4579 22.8835L11.8293 22.8729V22.7588C11.7133 22.7541 11.6901 22.6812 11.6849 22.4876L11.6615 21.5589C11.6589 21.4764 11.6675 21.444 11.7231 21.44L11.7913 21.4392L11.7865 21.3269L11.3695 21.3384L11.1887 22.2672L10.9775 21.347L10.5666 21.3566L10.5705 21.4698L10.6351 21.4651C10.6892 21.4651 10.7009 21.4918 10.7023 21.5771L10.7282 22.6745C10.7312 22.7608 10.7221 22.7876 10.6668 22.7876L10.6004 22.7885L10.6041 22.9017L11.0859 22.8911L11.0822 22.779H11.026C10.9715 22.781 10.9593 22.7541 10.9562 22.6697L10.9269 21.5119L11.2439 22.8883L11.307 22.8872L11.5715 21.5043L11.5946 22.4915Z" fill="#FFC213"/>
<path fill-rule="evenodd" clip-rule="evenodd" d="M9.84187 22.7283L9.76007 22.7216L9.74941 22.8329L10.2583 22.8837L10.2697 22.7696L10.2004 22.7639C10.1446 22.757 10.1387 22.7322 10.1455 22.6459L10.2524 21.5562C10.2583 21.4709 10.2718 21.4441 10.3267 21.4478L10.3951 21.4557L10.4077 21.3435L9.84193 21.2898C9.60684 21.2668 9.47285 21.4067 9.44486 21.6924C9.41411 21.9972 9.5422 22.1494 9.82947 22.1772C9.86796 22.183 9.91027 22.184 9.95953 22.1868L9.9152 22.625C9.90651 22.7131 9.89388 22.7322 9.84187 22.7283ZM9.96817 22.0662C9.95358 22.0699 9.93344 22.0699 9.90449 22.0662C9.73005 22.0509 9.66642 21.9732 9.69145 21.7182C9.71468 21.47 9.78111 21.3963 9.93344 21.4097C10.0163 21.4183 10.0288 21.4346 10.0202 21.5535L9.96817 22.0662Z" fill="#FFC213"/>
<path fill-rule="evenodd" clip-rule="evenodd" d="M8.69365 21.2054C8.73994 21.2131 8.74465 21.24 8.72737 21.3215L8.50289 22.4132C8.48454 22.4966 8.47001 22.5186 8.41519 22.507L8.35258 22.4955L8.33036 22.6068L8.8094 22.7046L8.83347 22.5953L8.76985 22.5809C8.71497 22.5703 8.71206 22.5416 8.72743 22.4582L8.95489 21.3695C8.97223 21.2889 8.9876 21.2639 9.03293 21.2736C9.13325 21.2947 9.17853 21.4816 9.13993 21.7883L9.2026 21.7997L9.3009 21.2276L8.46827 21.0542L8.32755 21.6215L8.39006 21.6339C8.4777 21.3387 8.59238 21.1825 8.69365 21.2054Z" fill="#FFC213"/>
<path fill-rule="evenodd" clip-rule="evenodd" d="M8.08717 21.151C8.04857 20.9754 7.96379 20.8653 7.82111 20.8212C7.67759 20.7734 7.54557 20.8088 7.40485 20.9352C7.27956 21.0483 7.17649 21.2247 7.10411 21.4413C7.03084 21.6598 7.01451 21.8361 7.04918 22.0116C7.08874 22.1994 7.17924 22.3173 7.31715 22.3614C7.45591 22.4066 7.58596 22.3681 7.73156 22.2377C7.86931 22.116 7.95902 21.9637 8.03017 21.7433C8.10254 21.5228 8.12179 21.3186 8.08717 21.151ZM7.35284 22.2493C7.20522 22.2024 7.20522 21.9618 7.34986 21.5218C7.49451 21.08 7.63326 20.8856 7.78543 20.9345C7.93097 20.9823 7.93097 21.2209 7.78739 21.6628C7.64095 22.1036 7.50124 22.2992 7.35284 22.2493Z" fill="#FFC213"/>
<path fill-rule="evenodd" clip-rule="evenodd" d="M6.57171 21.9453C6.47234 21.8813 6.48497 21.8084 6.56498 21.6388L6.95806 20.7943L6.99863 20.7658C7.04004 20.735 7.06994 20.7149 7.11718 20.7379L7.13065 20.7445L7.17969 20.6448L6.88294 20.5078L6.0282 21.175L6.27383 20.6507C6.36164 20.4619 6.4127 20.414 6.52935 20.4676L6.57552 20.3642L6.23338 20.2061L6.1853 20.3076C6.28163 20.3613 6.27395 20.4312 6.19001 20.6124L5.6879 21.6838L5.76219 21.7183L6.81931 20.8894L6.48878 21.6044C6.40597 21.7836 6.34806 21.8361 6.23635 21.7902L6.18625 21.8909L6.52346 22.0471L6.57171 21.9453Z" fill="#FFC213"/>
<path fill-rule="evenodd" clip-rule="evenodd" d="M4.62219 19.8453L4.67425 19.8819C4.90171 19.6374 5.03946 19.5943 5.20245 19.7054C5.26506 19.7476 5.27651 19.765 5.21485 19.8559L4.95664 20.2327C4.9498 20.2297 4.94402 20.2269 4.9393 20.2231C4.84392 20.1578 4.8534 20.0611 4.9576 19.8732L4.90553 19.8367L4.50161 20.4234L4.55564 20.4608C4.6935 20.293 4.77929 20.2546 4.87366 20.3169C4.8786 20.3208 4.88426 20.3255 4.88724 20.3275L4.59615 20.754C4.54689 20.8249 4.5268 20.8402 4.47951 20.8096L4.40342 20.7569L4.3398 20.8509L4.76666 21.1423L4.83029 21.0482L4.77732 21.0109C4.72918 20.9812 4.73788 20.9524 4.78501 20.8824L5.40758 19.9767C5.45583 19.9049 5.4799 19.8886 5.52523 19.9202L5.581 19.9565L5.64368 19.8656L4.94699 19.3911L4.62219 19.8453Z" fill="#FFC213"/>
<path fill-rule="evenodd" clip-rule="evenodd" d="M3.37042 20.1609C3.45519 20.2328 3.5632 20.2558 3.68933 20.2318C3.8811 20.1935 4.08068 20.0602 4.2628 19.8475C4.40526 19.6826 4.497 19.5092 4.53459 19.3424C4.57796 19.1544 4.53851 19.0194 4.42366 18.9206C4.35241 18.8593 4.26948 18.8382 4.16153 18.8573L4.18083 18.7269L4.13942 18.6917L3.71632 19.1517L3.76171 19.2024C4.03641 18.9695 4.23093 18.9004 4.33989 18.9916C4.46995 19.1037 4.38327 19.3136 4.07484 19.6701C3.76541 20.0314 3.57661 20.1455 3.43118 20.0228C3.32222 19.9279 3.34528 19.745 3.50721 19.4813L3.42821 19.4661C3.22089 19.7745 3.20266 20.019 3.37042 20.1609Z" fill="#FFC213"/>
<path fill-rule="evenodd" clip-rule="evenodd" d="M19.9664 7.15308L19.7202 7.65939L20.4119 7.84721L20.1961 8.27518L19.5026 8.08687L19.2861 8.51528L19.9801 8.70221L19.7662 9.12817L19.0708 8.94175L18.8523 9.37017L19.5513 9.5552L19.3339 9.981L18.6367 9.79764L18.3264 10.3909C18.1955 10.354 18.0657 10.3099 17.9424 10.2582L19.5643 7.03931C19.6819 7.08869 19.8153 7.12752 19.9664 7.15308Z" fill="white"/>
<path fill-rule="evenodd" clip-rule="evenodd" d="M18.063 7.33115C18.1112 7.10304 17.5893 6.83069 17.1702 6.49501L17.725 5.39087C17.944 5.51022 18.1878 5.69659 18.4306 5.96855C18.4957 6.03528 18.553 6.10542 18.6083 6.17512L18.063 7.33115Z" fill="white"/>
<path fill-rule="evenodd" clip-rule="evenodd" d="M16.8199 5.36798C16.9544 5.1858 17.3005 5.16147 17.7252 5.39097L17.1705 6.49511C16.7858 6.18258 16.4892 5.8137 16.8199 5.36798Z" fill="#D61F26"/>
<path fill-rule="evenodd" clip-rule="evenodd" d="M19.5641 7.03925L17.9422 10.2582C17.4878 10.0708 17.1129 9.80579 16.9865 9.60994L17.6847 8.13285L18.0312 7.39938C18.0492 7.37616 18.0583 7.35502 18.0632 7.33108L18.6084 6.17505C18.8813 6.51263 19.1174 6.84926 19.5641 7.03925Z" fill="#D61F26"/>
<path fill-rule="evenodd" clip-rule="evenodd" d="M19.9663 7.15308C20.1848 7.19024 20.4391 7.20011 20.75 7.17461L20.4118 7.84721L19.7201 7.65939L19.9663 7.15308Z" fill="#D61F26"/>
<path fill-rule="evenodd" clip-rule="evenodd" d="M19.5022 8.08691L20.1957 8.27523L19.9797 8.70226L19.2856 8.51533L19.5022 8.08691Z" fill="#D61F26"/>
<path fill-rule="evenodd" clip-rule="evenodd" d="M19.0704 8.94189L19.7659 9.12832L19.5509 9.55534L18.8519 9.37031L19.0704 8.94189Z" fill="#D61F26"/>
<path fill-rule="evenodd" clip-rule="evenodd" d="M19.3344 9.98096L19.0812 10.4888C18.8368 10.502 18.5784 10.4618 18.3269 10.3909L18.6371 9.79761L19.3344 9.98096Z" fill="#D61F26"/>
<path fill-rule="evenodd" clip-rule="evenodd" d="M17.1805 6.50366L16.8727 7.11498C16.6536 6.93191 16.4202 6.71407 16.1711 6.5065L16.748 5.48193C16.5402 5.88017 16.8235 6.2154 17.1805 6.50366Z" fill="white"/>
<path fill-rule="evenodd" clip-rule="evenodd" d="M18.0315 7.39932C18.0158 7.42281 17.9923 7.44301 17.9608 7.46399C17.6504 7.68182 17.2862 7.45969 16.8728 7.11474L17.1806 6.50342C17.6388 6.87074 18.2202 7.15899 18.0315 7.39932Z" fill="#D61F26"/>
<path d="M18.0312 7.39937C18.3795 6.95399 16.0953 6.34623 16.8198 5.36781C17.024 5.09005 17.7134 5.17447 18.4308 5.96848C18.9863 6.57774 19.2313 7.30212 20.75 7.17456L19.0806 10.4888C18.2387 10.5327 17.21 9.95951 16.9865 9.6081L18.0312 7.39937Z" stroke="#211E1F" stroke-width="0.339651"/>
<path d="M16.1703 6.5065C16.8849 7.10366 17.4848 7.79651 17.9599 7.46423C17.9914 7.44325 18.0149 7.42305 18.0306 7.39956C18.3647 6.97169 16.271 6.39346 16.7471 5.48193L16.1703 6.5065Z" stroke="#211E1F" stroke-width="0.339651"/>
<path fill-rule="evenodd" clip-rule="evenodd" d="M2.03348 7.15308L2.28019 7.65939L1.59107 7.84721L1.80507 8.27518L2.49895 8.08687L2.71479 8.51528L2.02091 8.70221L2.23491 9.12817L2.92974 8.94175L3.14755 9.37017L2.4507 9.5552L2.66671 9.981L3.36435 9.79764L3.67473 10.3909C3.80479 10.354 3.9349 10.3099 4.05823 10.2582L2.43639 7.03931C2.31789 7.08869 2.18766 7.12752 2.03348 7.15308Z" fill="white"/>
<path fill-rule="evenodd" clip-rule="evenodd" d="M3.93836 7.33115C3.89106 7.10304 4.41246 6.83069 4.83069 6.49501L4.27551 5.39087C4.05775 5.51022 3.81492 5.69659 3.56721 5.96855C3.5065 6.03528 3.44877 6.10542 3.39182 6.17512L3.93836 7.33115Z" fill="white"/>
<path fill-rule="evenodd" clip-rule="evenodd" d="M5.18289 5.36798C5.04695 5.1858 4.70105 5.16147 4.27497 5.39097L4.83015 6.49511C5.21561 6.18258 5.51258 5.8137 5.18289 5.36798Z" fill="#D61F26"/>
<path fill-rule="evenodd" clip-rule="evenodd" d="M2.43643 7.03925L4.05827 10.2582C4.51134 10.0708 4.88714 9.80579 5.01428 9.60994L3.96962 7.39938C3.95133 7.37616 3.94269 7.35502 3.93792 7.33108L3.39143 6.17505C3.11774 6.51263 2.8845 6.84926 2.43643 7.03925Z" fill="#D61F26"/>
<path fill-rule="evenodd" clip-rule="evenodd" d="M2.03345 7.15308C1.81654 7.19024 1.56029 7.20011 1.24991 7.17461L1.59104 7.84721L2.28015 7.65939L2.03345 7.15308Z" fill="#D61F26"/>
<path fill-rule="evenodd" clip-rule="evenodd" d="M2.49863 8.08691L1.80475 8.27523L2.0206 8.70226L2.71448 8.51533L2.49863 8.08691Z" fill="#D61F26"/>
<path fill-rule="evenodd" clip-rule="evenodd" d="M2.92953 8.94189L2.2347 9.12832L2.45049 9.55534L3.14734 9.37031L2.92953 8.94189Z" fill="#D61F26"/>
<path fill-rule="evenodd" clip-rule="evenodd" d="M2.66727 9.98096L2.92166 10.4888C3.16444 10.502 3.42461 10.4618 3.67529 10.3909L3.36491 9.79761L2.66727 9.98096Z" fill="#D61F26"/>
<path fill-rule="evenodd" clip-rule="evenodd" d="M4.82196 6.50366L5.12938 7.11498C5.34808 6.93191 5.58323 6.71407 5.82898 6.5065L5.25371 5.48193C5.46181 5.88017 5.17763 6.2154 4.82196 6.50366Z" fill="white"/>
<path fill-rule="evenodd" clip-rule="evenodd" d="M3.97012 7.39932C3.98745 7.42281 4.01164 7.44301 4.04047 7.46399C4.35277 7.68182 4.7141 7.45969 5.12952 7.11474L4.82211 6.50342C4.36332 6.87074 3.78311 7.15899 3.97012 7.39932Z" fill="#D61F26"/>
<path d="M3.96954 7.39937C3.62268 6.95399 5.90479 6.34623 5.18291 5.36781C4.97577 5.09005 4.2866 5.17447 3.56669 5.96848C3.01448 6.57774 2.76974 7.30212 1.2499 7.17456L2.92106 10.4888C3.76143 10.5327 4.79067 9.95951 5.01515 9.60809L3.96954 7.39937Z" stroke="#211E1F" stroke-width="0.339651"/>
<path d="M5.82898 6.5065C5.1149 7.10366 4.51646 7.79651 4.04033 7.46423C4.01149 7.44325 3.98731 7.42305 3.96998 7.39956C3.63552 6.97169 5.72978 6.39346 5.25371 5.48193L5.82898 6.5065Z" stroke="#211E1F" stroke-width="0.339651"/>
<path fill-rule="evenodd" clip-rule="evenodd" d="M8.91437 6.39567C9.06372 6.51508 9.32288 6.68833 9.61206 6.86293V9.15568C9.28625 8.95899 8.95482 8.74802 8.64163 8.57995V6.20361C8.74947 6.27464 8.84502 6.34065 8.91437 6.39567Z" fill="white"/>
<path fill-rule="evenodd" clip-rule="evenodd" d="M7.36063 5.77319C7.37404 5.77319 7.38762 5.77654 7.40108 5.77654L7.73071 8.2536C7.71814 8.25315 7.70378 8.24969 7.69015 8.24969C7.42033 8.24969 7.16986 8.34014 6.93376 8.47255L6.19634 6.22176C6.55773 5.96486 6.94616 5.77319 7.36063 5.77319Z" fill="white"/>
<path fill-rule="evenodd" clip-rule="evenodd" d="M4.04017 7.46426C4.34859 7.6792 4.70998 7.46426 5.11861 7.12378L6.07849 9.11762C5.6881 9.45325 5.34124 9.73051 5.01548 9.60831L3.96981 7.39959C3.98715 7.42308 4.01139 7.44328 4.04017 7.46426Z" fill="white"/>
<path fill-rule="evenodd" clip-rule="evenodd" d="M17.9609 7.46426C17.9923 7.44328 18.0158 7.42308 18.0315 7.39959L16.9868 9.6082C16.6581 9.73051 16.3123 9.45325 15.9221 9.11762L16.8835 7.12378C17.2937 7.46426 17.6524 7.6792 17.9609 7.46426Z" fill="white"/>
<path fill-rule="evenodd" clip-rule="evenodd" d="M11.0004 7.45852C11.0966 7.45852 11.2248 7.42599 11.3696 7.37427V9.6808C11.2359 9.72723 11.1121 9.75518 11.0004 9.75518C10.8904 9.75518 10.7656 9.72723 10.6333 9.6808V7.37427C10.7757 7.42599 10.9053 7.45852 11.0004 7.45852Z" fill="white"/>
<path fill-rule="evenodd" clip-rule="evenodd" d="M14.6421 5.77319C15.0553 5.77319 15.4434 5.96486 15.8046 6.22176L15.0663 8.47255C14.8326 8.34014 14.5818 8.24969 14.311 8.24969C14.2988 8.24969 14.2847 8.25315 14.272 8.2536L14.6007 5.77654C14.6145 5.77654 14.6275 5.77319 14.6421 5.77319Z" fill="white"/>
<path fill-rule="evenodd" clip-rule="evenodd" d="M13.0876 6.39567C13.1569 6.34065 13.2489 6.27464 13.3589 6.20361V8.57995C13.0451 8.74802 12.7137 8.95899 12.3899 9.15568V6.86293C12.6799 6.68822 12.9391 6.51508 13.0876 6.39567Z" fill="white"/>
<path fill-rule="evenodd" clip-rule="evenodd" d="M12.3888 6.86279V9.15555C12.0257 9.37578 11.6707 9.578 11.3689 9.68067V7.37413C11.6708 7.26627 12.0518 7.06562 12.3888 6.86279Z" fill="#D61F26"/>
<path fill-rule="evenodd" clip-rule="evenodd" d="M14.6 5.77661L14.2712 8.25367C14.0138 8.266 13.6985 8.39735 13.3579 8.57998V6.20364C13.6701 6.00667 14.1207 5.78978 14.6 5.77661Z" fill="#D61F26"/>
<path fill-rule="evenodd" clip-rule="evenodd" d="M16.8832 7.12374L15.9217 9.11758C15.66 8.89221 15.3789 8.64547 15.0659 8.47272L15.8041 6.22192C16.1949 6.49863 16.555 6.85094 16.8832 7.12374Z" fill="#D61F26"/>
<path fill-rule="evenodd" clip-rule="evenodd" d="M10.6328 7.37413V9.68067C10.3293 9.578 9.97557 9.3759 9.61222 9.15555V6.86279C9.94757 7.06562 10.3283 7.26627 10.6328 7.37413Z" fill="#D61F26"/>
<path fill-rule="evenodd" clip-rule="evenodd" d="M8.64185 6.20364V8.57998C8.30167 8.39735 7.98741 8.266 7.73016 8.25367L7.40053 5.77661C7.87957 5.78978 8.3295 6.00667 8.64185 6.20364Z" fill="#D61F26"/>
<path fill-rule="evenodd" clip-rule="evenodd" d="M6.19593 6.22192L6.93335 8.47272C6.62296 8.64547 6.34158 8.89221 6.0785 9.11758L5.11861 7.12374C5.44521 6.85083 5.80469 6.49863 6.19593 6.22192Z" fill="#D61F26"/>
<path d="M11.0006 9.75513C10.166 9.75513 8.56714 8.24969 7.69012 8.24969C6.52404 8.24969 5.7271 9.87454 5.01582 9.6081L3.97015 7.39938C3.98749 7.42287 4.01167 7.44307 4.04051 7.46405C4.82405 8.01378 5.94002 5.77319 7.3606 5.77319C8.02261 5.77319 8.63946 6.18337 8.91512 6.39562C9.32661 6.7221 10.5313 7.45847 11.0006 7.45847C11.4678 7.45847 12.6768 6.7221 13.0873 6.39562C13.3624 6.18337 13.9798 5.77319 14.642 5.77319C16.0596 5.77319 17.1768 8.01378 17.9609 7.46405C17.9923 7.44307 18.0158 7.42287 18.0315 7.39938L16.9868 9.60799C16.2747 9.87454 15.4768 8.24969 14.311 8.24969C13.4347 8.24969 11.8335 9.75513 11.0006 9.75513Z" stroke="#211E1F" stroke-width="0.339651"/>
<path fill-rule="evenodd" clip-rule="evenodd" d="M10.9637 5.20441C8.80814 5.20441 7.06084 4.26231 7.06084 3.10259C7.06084 1.94171 8.80814 1 10.9637 1C13.1184 1 14.8669 1.94171 14.8669 3.10259C14.8669 4.26231 13.1184 5.20441 10.9637 5.20441Z" fill="#211E1F"/>
<path d="M10.9637 5.20441C8.80814 5.20441 7.06084 4.26231 7.06084 3.10259C7.06084 1.94171 8.80814 1 10.9637 1C13.1184 1 14.8669 1.94171 14.8669 3.10259C14.8669 4.26231 13.1184 5.20441 10.9637 5.20441Z" stroke="white" stroke-width="0.170114"/>
<path fill-rule="evenodd" clip-rule="evenodd" d="M10.9606 4.86296C9.04625 4.86296 7.49068 4.07498 7.49068 3.10263C7.49068 2.1294 9.04625 1.34253 10.9606 1.34253C12.8796 1.34253 14.4298 2.1294 14.4298 3.10263C14.4298 4.07498 12.8796 4.86296 10.9606 4.86296Z" fill="#FFC213"/>
<path d="M10.9606 4.86296C9.04625 4.86296 7.49068 4.07498 7.49068 3.10263C7.49068 2.1294 9.04625 1.34253 10.9606 1.34253C12.8796 1.34253 14.4298 2.1294 14.4298 3.10263C14.4298 4.07498 12.8796 4.86296 10.9606 4.86296Z" stroke="#211E1F" stroke-width="0.00014441"/>
<path fill-rule="evenodd" clip-rule="evenodd" d="M10.9576 4.44158C9.39903 4.44158 8.13162 3.93794 8.13162 3.31696C8.13162 2.6976 9.39903 2.19458 10.9576 2.19458C12.5178 2.19458 13.7832 2.6976 13.7832 3.31696C13.7832 3.93794 12.5179 4.44158 10.9576 4.44158Z" fill="white"/>
<path d="M10.9576 4.44158C9.39903 4.44158 8.13162 3.93794 8.13162 3.31696C8.13162 2.6976 9.39903 2.19458 10.9576 2.19458C12.5178 2.19458 13.7832 2.6976 13.7832 3.31696C13.7832 3.93794 12.5179 4.44158 10.9576 4.44158Z" stroke="#211E1F" stroke-width="0.681324"/>
<path fill-rule="evenodd" clip-rule="evenodd" d="M10.9667 2.51758C12.4695 2.51758 13.6843 3.72996 13.6843 5.22179C13.6843 6.71641 12.4695 7.92606 10.9667 7.92606H11.0001C9.50057 7.92606 8.28152 6.71641 8.28152 5.22179C8.28152 3.72996 9.50062 2.51758 11.0001 2.51758H10.9667Z" fill="white"/>
<path d="M10.9667 2.51758C12.4695 2.51758 13.6843 3.72996 13.6843 5.22179C13.6843 6.71641 12.4695 7.92606 10.9667 7.92606H11.0001C9.50057 7.92606 8.28152 6.71641 8.28152 5.22179C8.28152 3.72996 9.50062 2.51758 11.0001 2.51758H10.9667V2.51758Z" stroke="#211E1F" stroke-width="0.339651"/>
<path fill-rule="evenodd" clip-rule="evenodd" d="M11.4188 7.45755L11.9782 6.51283L13.0027 6.34644L13.26 6.6704C13.2484 6.68653 13.242 6.70377 13.2297 6.71883L13.1853 6.78211C12.8422 7.26382 12.3478 7.62907 11.7672 7.8074L11.6626 7.82671L11.4188 7.45755Z" fill="#211E1F"/>
<path fill-rule="evenodd" clip-rule="evenodd" d="M12.1188 4.8476L11.6791 6.19602H10.2888L9.8494 4.8476L10.9854 4.02954L12.1188 4.8476Z" fill="#211E1F"/>
<path fill-rule="evenodd" clip-rule="evenodd" d="M10.9856 3.4832V3.48124L10.1397 2.93169V2.65972C10.4047 2.57084 10.6882 2.5209 10.9846 2.51855C11.2781 2.5209 11.5615 2.57084 11.8285 2.65972V2.93169L10.9856 3.4832Z" fill="#211E1F"/>
<path fill-rule="evenodd" clip-rule="evenodd" d="M12.5523 4.41885L12.5227 3.34652L12.7417 3.177C12.8578 3.27465 12.9644 3.38106 13.0601 3.49734L13.0713 3.50861C13.3806 3.88503 13.5874 4.34531 13.6577 4.85079L13.4154 4.9568L12.5523 4.41885Z" fill="#211E1F"/>
<path fill-rule="evenodd" clip-rule="evenodd" d="M9.98721 6.51283L10.5463 7.45755L10.3043 7.82671L10.2031 7.80785C9.61432 7.62824 9.10835 7.25227 8.7643 6.75957L8.74303 6.72676C8.72962 6.70756 8.71891 6.68653 8.70639 6.6704L8.96567 6.34644L9.98721 6.51283Z" fill="#211E1F"/>
<path fill-rule="evenodd" clip-rule="evenodd" d="M9.41389 4.41885L8.55326 4.9568L8.31043 4.85079C8.38079 4.3433 8.58894 3.88068 8.90107 3.50275L8.90303 3.50236C8.99942 3.38396 9.11029 3.2766 9.22486 3.177L9.44458 3.34652L9.41389 4.41885Z" fill="#211E1F"/>
</svg>
