<svg width="18" height="21" viewBox="0 0 18 21" fill="none" xmlns="http://www.w3.org/2000/svg">
<path fill-rule="evenodd" clip-rule="evenodd" d="M8.9983 20.25L18 11.2401L15.0391 4.44337H16.7102V0H1.28644V4.44337H2.96086L0 11.2401L8.9983 20.25Z" fill="#ED2127"/>
<path fill-rule="evenodd" clip-rule="evenodd" d="M2.13062 0.844971C2.13062 1.69328 2.13062 2.75025 2.13062 3.59856C2.54582 3.59856 15.4511 3.59856 15.8663 3.59856C15.8663 2.75025 15.8663 1.69328 15.8663 0.844971C14.4471 0.844971 3.55319 0.844971 2.13062 0.844971Z" fill="#F9DB03"/>
<path fill-rule="evenodd" clip-rule="evenodd" d="M8.99811 4.44336H3.87956C3.0934 6.2426 1.30327 10.3576 1.00378 11.0554C1.69465 11.7464 8.00775 18.0676 8.99811 19.0596V4.44336Z" fill="black"/>
<path fill-rule="evenodd" clip-rule="evenodd" d="M14.1133 4.44336H8.99817V19.0562C9.98853 18.0642 16.3016 11.7464 16.9925 11.052C16.6896 10.3576 14.8995 6.24602 14.1133 4.44336Z" fill="#F9DB03"/>
<path fill-rule="evenodd" clip-rule="evenodd" d="M4.08737 1.86079L4.38686 3.24956H4.77483L5.24108 1.29297H4.88374L4.58765 2.80146L4.28816 1.29297H3.9138L3.6075 2.80146L3.30801 1.29297H2.94727L3.40671 3.24956H3.8117L4.08737 1.86079Z" fill="black"/>
<path fill-rule="evenodd" clip-rule="evenodd" d="M5.90479 2.55523L6.1226 1.88821L6.34042 2.55523H5.90479ZM6.56163 3.24961H6.93599L6.30979 1.53931H5.93883L5.31262 3.24961H5.68698L5.81631 2.85282H6.43911L6.56163 3.24961Z" fill="black"/>
<path fill-rule="evenodd" clip-rule="evenodd" d="M6.94299 1.53931V1.8369H7.41265V3.24961H7.76999V1.8369H8.22944L8.30091 1.53931H6.94299Z" fill="black"/>
<path fill-rule="evenodd" clip-rule="evenodd" d="M8.60339 1.53931V3.24961H8.95393V2.50734H9.47123V2.20975H8.95393V1.83348H9.55631L9.62778 1.53589H8.60339V1.53931Z" fill="black"/>
<path fill-rule="evenodd" clip-rule="evenodd" d="M10.6422 3.02387C10.3019 3.02387 10.2168 2.7468 10.2168 2.40474C10.2168 2.06268 10.3019 1.78561 10.6422 1.78561C10.9825 1.78561 11.0676 2.06268 11.0676 2.40474C11.0676 2.7468 10.9825 3.02387 10.6422 3.02387ZM10.6422 1.51538C10.0602 1.51538 9.81519 1.91217 9.81519 2.40132C9.81519 2.89389 10.0568 3.28726 10.6422 3.28726C11.2241 3.28726 11.4692 2.89047 11.4692 2.40132C11.4658 1.91559 11.2241 1.51538 10.6422 1.51538Z" fill="black"/>
<path fill-rule="evenodd" clip-rule="evenodd" d="M12.5001 2.28158H12.2313V1.8369H12.5001C12.5988 1.8369 12.7418 1.85058 12.7418 2.04556C12.7418 2.24053 12.5988 2.28158 12.5001 2.28158ZM12.7213 2.52444V2.50734C12.837 2.50734 13.1229 2.39788 13.1229 2.03529C13.1229 1.66929 12.8439 1.53931 12.5273 1.53931H11.8773V3.24961H12.2313V2.53812H12.2619C12.381 2.53812 12.7996 3.24961 12.7996 3.24961H13.2454L12.7213 2.52444Z" fill="black"/>
<path fill-rule="evenodd" clip-rule="evenodd" d="M14.2289 2.95544H13.96V1.8369H14.2289C14.4637 1.8369 14.5965 2.06266 14.5965 2.39788C14.5999 2.73652 14.4637 2.95544 14.2289 2.95544ZM14.2187 1.53931H13.6095V3.24961H14.2187C14.7632 3.24961 14.9912 2.88361 14.9912 2.39446C14.9946 1.91215 14.7632 1.53931 14.2187 1.53931Z" fill="black"/>
<path fill-rule="evenodd" clip-rule="evenodd" d="M6.10225 5.79463C6.10225 5.84936 6.10565 5.88014 6.11246 5.91093C6.11586 5.94171 6.12267 5.97592 6.12267 6.05801C6.12267 6.31798 6.06141 6.44112 6.02057 6.44112C6.01036 6.44112 6.00696 6.44112 6.00355 6.44112C6.00015 6.4377 5.98994 6.42402 5.98313 6.41376C5.91167 6.31114 5.81637 6.2051 5.55432 6.2051C5.31269 6.2051 5.15273 6.37613 5.15273 6.62925C5.15273 7.00552 5.24462 7.30653 5.3263 7.5494C5.37054 7.68964 5.41138 7.81621 5.41138 7.89488C5.41138 7.95987 5.38075 8.02144 5.36374 8.03512C5.27185 8.03512 5.23441 8.00434 5.16975 7.93935C5.08126 7.85041 4.95874 7.72727 4.67967 7.72727C4.56056 7.72727 4.28489 7.76832 4.28489 8.14458C4.28489 8.30877 4.34275 8.44902 4.3938 8.58242C4.45165 8.72267 4.51291 8.87317 4.51291 9.06815C4.51291 9.08525 4.51291 9.22208 4.46867 9.22208C4.2917 9.22208 4.22704 9.11262 4.11813 8.91764C4.02965 8.75003 3.92074 8.53795 3.65869 8.53795C3.23328 8.53795 3.23328 9.17077 3.23328 9.41021C3.23328 10.7545 4.50611 11.2402 5.36374 11.2402C5.52709 11.2402 5.61898 11.2266 5.71427 11.2129C5.80616 11.1992 5.90146 11.1855 6.07502 11.1855C6.59573 11.1855 6.99051 11.2881 7.22533 11.4865C7.09261 11.4386 6.93946 11.401 6.75228 11.401C6.30645 11.401 6.13969 11.507 5.98313 11.637C5.92528 11.6849 5.88104 11.7225 5.80276 11.7431L5.16634 11.9244L5.81297 12.0714C6.08183 12.133 6.23157 12.3451 6.38813 12.5674C6.55489 12.8069 6.74547 13.0771 7.09601 13.0771C7.12664 13.0771 7.15727 13.0737 7.1879 13.0668C7.15727 13.231 7.13345 13.4431 7.13345 13.686C7.13345 14.0349 7.21853 14.1717 7.33084 14.3154L7.38529 14.3872C7.43294 14.4624 7.48739 14.5343 7.53844 14.5993C7.72562 14.8421 7.89578 15.0713 7.89578 15.3894C7.89578 15.557 7.90599 15.6939 7.9128 15.8239C7.92301 15.9573 7.92641 16.0804 7.92641 16.2343C7.92641 16.6995 8.24972 16.8432 8.41989 16.9253C8.43691 16.9355 8.46073 16.9424 8.47434 16.9527C8.50837 17.1134 8.66493 17.1647 8.76022 17.1955L8.79425 17.2092L8.82828 17.2229C8.87593 17.2434 8.9474 17.2776 9.06992 17.2776C9.39323 17.2776 9.53276 17.0382 9.55999 16.8398C9.56339 16.8364 9.5736 16.8364 9.57701 16.8295C9.71995 16.7679 10.016 16.6345 10.016 16.2206C10.016 16.0051 9.98881 15.841 9.96158 15.6939C9.94456 15.5878 9.93095 15.4955 9.93095 15.4031C9.93095 15.1363 10.0365 15.0063 10.1862 14.825C10.3836 14.5787 10.6354 14.2675 10.6354 13.5731C10.6354 13.3268 10.6218 13.1387 10.6048 12.995C10.6456 13.0053 10.6899 13.0121 10.7273 13.0121C11.1868 13.0121 11.3467 12.735 11.4624 12.5093C11.6802 12.0817 12.0954 12.1056 12.0954 12.1056C12.0954 12.1056 11.7653 11.5344 10.9758 11.5344C10.7375 11.5344 10.5503 11.5823 10.4108 11.6439C10.4755 11.4592 10.5844 11.3736 10.6763 11.3258C10.8941 11.2094 11.214 11.2026 11.5033 11.2026C11.6802 11.2026 11.8028 11.2163 11.9219 11.23C12.0376 11.2437 12.1533 11.2505 12.303 11.2505C13.4636 11.2505 13.7699 10.8845 14.0932 10.4945C14.3688 10.1627 14.5492 9.84463 14.5492 9.34522C14.5492 9.01342 14.4505 8.65425 14.1817 8.65425C13.9468 8.65425 13.8447 8.87659 13.7665 9.04762C13.6678 9.25628 13.6133 9.34522 13.5146 9.34522C13.3853 9.34522 13.2798 9.21865 13.2798 9.05789C13.2798 8.9108 13.3785 8.72609 13.4704 8.54822C13.5759 8.3464 13.6882 8.1309 13.6882 7.92566C13.6882 7.80594 13.6405 7.70333 13.552 7.62807C13.4772 7.5665 13.3853 7.53572 13.2832 7.53572C13.0756 7.53572 12.9122 7.70675 12.7523 7.87094C12.6502 7.97697 12.514 8.11722 12.429 8.12748C12.4119 8.1138 12.3847 8.05223 12.3847 8.00776C12.3847 7.86067 12.4494 7.6486 12.514 7.44336C12.5787 7.22102 12.6468 7.00894 12.6468 6.84133C12.6468 6.47875 12.4358 6.31456 12.2214 6.31456C12.0308 6.31456 11.9083 6.40349 11.8062 6.47875C11.7313 6.53348 11.6836 6.56426 11.6258 6.56768C11.6258 6.56426 11.6224 6.56426 11.6224 6.55742C11.6224 6.54716 11.6224 6.38639 11.6224 6.38639C11.6224 6.33166 11.6224 6.28035 11.6224 6.23246C11.6224 5.84936 11.6054 5.58597 11.459 5.43546C11.3876 5.36021 11.2923 5.326 11.1766 5.326C10.649 5.326 10.4108 6.02381 10.4108 6.71477C10.4108 7.03289 10.4244 7.3168 10.438 7.59045C10.4517 7.85041 10.4585 8.10012 10.4585 8.3635C10.4585 9.00316 10.3257 9.52993 10.2168 9.80358C10.1828 9.49915 10.1249 9.03736 9.771 9.03736C9.47491 9.03736 9.41025 9.41363 9.32857 9.85147C9.2571 10.2448 9.16181 10.7785 8.91337 10.7785C8.70917 10.7785 8.64791 10.4056 8.59686 9.91646C8.539 9.43757 8.47775 8.8937 8.05233 8.8937C7.58949 8.8937 7.56226 9.49572 7.53844 9.88909C7.53503 9.93698 7.53503 9.99855 7.52823 10.0533C7.41252 9.83094 7.27979 9.45126 7.27979 9.09893C7.27979 8.65768 7.30701 8.30877 7.33764 7.97013C7.36487 7.6486 7.3921 7.3168 7.3921 6.90974C7.3921 6.01697 7.17088 5.7741 6.97349 5.56202L6.95988 5.54834C6.82715 5.4081 6.70463 5.27127 6.51064 5.27127C6.24859 5.26785 6.10225 5.53124 6.10225 5.79463Z" fill="black"/>
<path fill-rule="evenodd" clip-rule="evenodd" d="M10.2372 13.2309L10.2066 13.2787C10.2066 13.2787 10.0466 13.224 9.90029 13.224C9.63484 13.224 9.53954 13.4053 9.53954 13.4053C9.53954 13.4053 9.62803 13.354 9.79479 13.354C10.0194 13.354 10.1896 13.4771 10.1896 13.5216C10.1896 13.5695 10.1181 13.5934 10.0602 13.5934C10.0602 13.7029 9.9105 13.8534 9.46467 13.8534C9.46467 14.0757 9.6008 14.2194 9.6008 14.2878C9.48509 14.2878 9.47148 14.3973 9.47148 14.5923C9.47148 14.5923 9.31152 13.9697 9.31152 13.72C9.31152 13.3472 9.46127 13.0701 9.77437 13.0701C10.0092 13.0735 10.2372 13.2309 10.2372 13.2309ZM11.1969 11.9858C11.2684 11.9858 11.3059 11.9994 11.3059 11.9994C10.8907 12.0747 10.8941 12.5775 10.5605 12.5775C10.4891 12.5775 10.4414 12.5467 10.4414 12.5467C10.4891 12.4544 10.6456 12.4304 10.6456 12.3073C10.5367 12.3073 10.4584 12.3176 10.3529 12.3381C10.3495 12.297 10.6796 11.9858 11.1969 11.9858ZM8.40625 14.6196V14.3494C8.40625 14.2741 8.37562 14.2434 8.30755 14.2434L8.48112 13.8466V13.8055C8.17142 13.8055 7.90597 13.7439 7.90597 13.5216H7.81748C7.80046 13.5216 7.75962 13.5011 7.75962 13.4635C7.75962 13.4361 7.86172 13.3164 8.11016 13.3164C8.29734 13.3164 8.40625 13.395 8.40625 13.395C8.40625 13.395 8.30075 13.1488 8.01827 13.1488C7.85151 13.1488 7.80727 13.1693 7.80727 13.1693C7.80727 13.1693 7.90937 13.0427 8.0455 13.0427C8.47431 13.0427 8.58322 13.313 8.58322 13.785C8.58322 14.2947 8.40625 14.6196 8.40625 14.6196ZM7.2151 12.386C7.2151 12.4304 7.35123 12.4612 7.43631 12.4612C7.43631 12.5091 7.33762 12.5844 7.24573 12.5844C6.89519 12.5844 7.06535 12.0405 6.36768 11.9071C6.36768 11.9071 6.40171 11.89 6.497 11.89C7.04834 11.89 7.20829 12.3176 7.50778 12.3176C7.4193 12.3278 7.2151 12.3347 7.2151 12.386ZM14.2055 8.81485C13.9264 8.81485 13.9434 9.50924 13.535 9.50924C13.3104 9.50924 13.13 9.30742 13.13 9.0543C13.13 8.68829 13.535 8.26414 13.535 7.92207C13.535 7.77499 13.4125 7.69974 13.3002 7.69974C13.0245 7.69974 12.7488 8.2915 12.4426 8.2915C12.2996 8.2915 12.235 8.10679 12.235 8.00417C12.235 7.67237 12.4902 7.13191 12.4902 6.83774C12.4902 6.5983 12.3847 6.47858 12.2384 6.47858C11.9695 6.47858 11.881 6.7317 11.6258 6.7317C11.5271 6.7317 11.4726 6.62566 11.4726 6.56067C11.4726 5.89707 11.5066 5.49002 11.1935 5.49002C10.792 5.49002 10.598 6.09889 10.598 6.71118C10.598 7.33031 10.6456 7.80919 10.6456 8.35991C10.6456 9.22191 10.438 9.94365 10.2576 10.0976C10.2576 10.0976 10.2134 10.6004 10.4108 10.6004C10.809 10.6004 11.4624 9.48187 12.2656 9.48187C12.6263 9.48187 12.6536 9.70763 12.6536 9.79657C12.6536 10.0873 12.2384 10.2378 12.2384 10.426C12.2384 10.5183 12.3847 10.5286 12.5617 10.5286C13.0926 10.5286 13.4806 10.2002 13.4806 10.2002C13.4806 10.2002 13.0994 10.6517 12.5038 10.6517C12.2418 10.6517 12.041 10.5662 12.041 10.4157C12.041 10.1728 12.531 9.97786 12.531 9.735C12.531 9.65974 12.446 9.55713 12.2622 9.55713C11.6053 9.55713 10.9111 10.8056 10.3699 10.8056C10.261 10.8056 10.1045 10.7304 10.1045 10.4465C10.1045 10.2036 10.0875 9.20822 9.78118 9.20822C9.42043 9.20822 9.59059 10.9493 8.92355 10.9493C8.21567 10.9493 8.64108 9.0714 8.06252 9.0714C7.70857 9.0714 7.76643 9.58107 7.70857 10.0394C7.66433 10.4157 7.55543 10.7543 7.324 10.7543C7.01771 10.7543 6.8067 10.6141 6.54465 10.4533C6.38129 10.3507 6.20432 10.2515 6.05798 10.1455C5.82315 9.9676 5.69042 9.79315 5.4624 9.79315C5.33988 9.79315 5.20035 9.85814 5.20035 9.98812C5.20035 10.2344 5.4624 10.3336 5.4624 10.5457C5.4624 10.6654 5.28543 10.7612 5.08123 10.7612C4.46864 10.7612 4.10109 10.3575 4.10109 10.1968C4.10109 10.1968 4.40738 10.6312 5.11186 10.6312C5.26161 10.6312 5.31947 10.597 5.31947 10.5217C5.31947 10.3815 5.10846 10.2549 5.10846 9.98812C5.10846 9.81709 5.24119 9.68027 5.43518 9.68027C5.67681 9.68027 5.84698 9.86156 6.09882 10.0429C6.45957 10.3097 6.93262 10.6073 7.29678 10.6073C7.43971 10.6073 7.5316 10.5457 7.5316 10.3986C7.5316 10.2618 7.11981 9.88208 7.11981 9.11245C7.11981 8.22651 7.22871 7.73736 7.22871 6.92326C7.22871 6.07495 7.02451 5.87655 6.84074 5.67473C6.7046 5.52423 6.62973 5.44897 6.51402 5.44897C6.32344 5.44897 6.25877 5.66105 6.25877 5.8013C6.25877 5.89023 6.27919 5.89365 6.27919 6.06126C6.27919 6.36228 6.20772 6.6154 6.01033 6.6154C5.77551 6.6154 5.90143 6.37938 5.54749 6.37938C5.38072 6.37938 5.31266 6.4991 5.31266 6.63593C5.31266 7.22085 5.5645 7.63474 5.5645 7.90155C5.5645 8.03495 5.48963 8.21625 5.3535 8.21625C5.00296 8.21625 5.06762 7.90497 4.66263 7.90497C4.48906 7.90497 4.43801 8.00075 4.43801 8.15126C4.43801 8.43859 4.66944 8.66093 4.66944 9.08166C4.66944 9.26637 4.60818 9.4032 4.45163 9.4032C3.93092 9.4032 3.99218 8.71908 3.64845 8.71908C3.47148 8.71908 3.39661 8.94826 3.39661 9.41688C3.39661 10.6688 4.62179 11.0793 5.3603 11.0793C5.67341 11.0793 5.71084 11.0246 6.07159 11.0246C7.78004 11.0246 7.64391 12.0713 7.64391 12.0713C7.64391 12.0713 7.4261 11.5753 6.74544 11.5753C6.08861 11.5753 6.15667 11.8181 5.84017 11.9105C6.497 12.0576 6.55486 12.9093 7.08577 12.9093C7.324 12.9093 7.43971 12.728 7.43971 12.728C7.43971 12.728 7.28997 13.1111 7.28997 13.6892C7.28997 14.0826 7.40568 14.1373 7.51118 14.2947C7.7358 14.6265 8.05571 14.9241 8.05571 15.3927C8.13058 15.3927 8.18844 15.0438 8.23268 15.0438C8.25991 15.0438 8.28713 15.0985 8.28713 15.1772C8.28713 15.3585 8.09315 15.6732 8.09315 16.2444C8.09315 16.5865 8.30415 16.6959 8.46411 16.7678C8.50494 16.7678 8.72616 16.2991 8.72616 16.2991C8.59343 16.6652 8.63427 16.8704 8.63427 16.8978C8.63427 16.9935 8.72616 17.0141 8.85208 17.0585C8.91674 17.079 8.95758 17.1167 9.0767 17.1167C9.35577 17.1167 9.40682 16.8635 9.40682 16.7678C9.40682 16.672 9.30472 16.4804 9.30472 16.371C9.30472 16.371 9.30131 16.306 9.31833 16.306C9.35236 16.306 9.49871 16.6959 9.49871 16.6959C9.63143 16.6378 9.85265 16.5557 9.85265 16.2376C9.85265 15.8647 9.62803 15.3653 9.62803 15.1361C9.62803 15.0848 9.64505 15.0472 9.66206 15.0472C9.70631 15.0472 9.77777 15.249 9.77777 15.249C9.87647 14.6846 10.4686 14.6299 10.4686 13.5763C10.4686 12.9127 10.3665 12.6972 10.3665 12.6972C10.3665 12.6972 10.5435 12.8478 10.7273 12.8478C11.3671 12.8478 11.2174 12.2081 11.7177 11.9926C11.7177 11.931 11.4488 11.7018 10.9757 11.7018C10.3802 11.7018 10.1896 12.0234 10.1896 12.0234C10.1896 11.0896 10.843 11.0314 11.5032 11.0314C11.8572 11.0314 12.0069 11.0793 12.303 11.0793C13.3853 11.0793 13.6507 10.7578 13.9604 10.3815C14.2327 10.0497 14.3756 9.76236 14.3756 9.34163C14.4062 9.10561 14.3518 8.81485 14.2055 8.81485Z" fill="#ED2127"/>
<path fill-rule="evenodd" clip-rule="evenodd" d="M9.52601 13.6618L9.49878 13.7132C9.49878 13.7132 9.55323 13.7474 9.66214 13.7474C9.88675 13.7474 9.98545 13.5661 9.96163 13.5455C9.94121 13.525 9.84251 13.6824 9.66894 13.6824C9.57025 13.6858 9.52601 13.6618 9.52601 13.6618Z" fill="#ED2127"/>
<path fill-rule="evenodd" clip-rule="evenodd" d="M9.77095 13.6003C9.77095 13.6174 9.75053 13.631 9.72331 13.631C9.69608 13.631 9.67566 13.6174 9.67566 13.6003C9.67566 13.5833 9.69608 13.5697 9.72331 13.5697C9.74713 13.5663 9.77095 13.5867 9.77095 13.6003Z" fill="#ED2127"/>
<path fill-rule="evenodd" clip-rule="evenodd" d="M8.05884 13.5181C8.07926 13.5352 8.13031 13.655 8.24943 13.655C8.33791 13.655 8.35153 13.6208 8.37875 13.6071C8.40598 13.59 8.43661 13.6208 8.41959 13.6481C8.40257 13.6755 8.37195 13.7063 8.25623 13.7063C8.10989 13.7063 8.02141 13.5865 8.0146 13.5558C7.99418 13.501 8.0112 13.4839 8.05884 13.5181Z" fill="#ED2127"/>
<path fill-rule="evenodd" clip-rule="evenodd" d="M8.27345 13.5558C8.27345 13.5728 8.25643 13.583 8.23261 13.583C8.20879 13.583 8.19177 13.5694 8.19177 13.5558C8.19177 13.5388 8.20879 13.5286 8.23261 13.5286C8.25643 13.5286 8.27345 13.5354 8.27345 13.5558Z" fill="#ED2127"/>
</svg>
